<svg xmlns="http://www.w3.org/2000/svg" xmlns:xlink="http://www.w3.org/1999/xlink" width="192" zoomAndPan="magnify" viewBox="0 0 144 143.999998" height="192" preserveAspectRatio="xMidYMid meet" version="1.0"><defs><g/><clipPath id="87c676e236"><path d="M 9.359375 0 L 135 0 L 135 143.960938 L 9.359375 143.960938 Z M 9.359375 0 " clip-rule="nonzero"/></clipPath><clipPath id="d0e4fed262"><path d="M 75 53 L 104 53 L 104 78.386719 L 75 78.386719 Z M 75 53 " clip-rule="nonzero"/></clipPath><clipPath id="efec3bb8a7"><path d="M 78 58 L 98 58 L 98 78.386719 L 78 78.386719 Z M 78 58 " clip-rule="nonzero"/></clipPath><clipPath id="87bef103b1"><path d="M 80 65 L 93 65 L 93 78.386719 L 80 78.386719 Z M 80 65 " clip-rule="nonzero"/></clipPath><clipPath id="9213c1142c"><path d="M 79 59 L 105 59 L 105 78.386719 L 79 78.386719 Z M 79 59 " clip-rule="nonzero"/></clipPath><clipPath id="dd5e0229bc"><path d="M 81 65 L 99 65 L 99 78.386719 L 81 78.386719 Z M 81 65 " clip-rule="nonzero"/></clipPath><clipPath id="853fd9b512"><path d="M 83 70 L 93 70 L 93 78.386719 L 83 78.386719 Z M 83 70 " clip-rule="nonzero"/></clipPath><clipPath id="c6616fc6af"><path d="M 76 48 L 109 48 L 109 78.386719 L 76 78.386719 Z M 76 48 " clip-rule="nonzero"/></clipPath><clipPath id="ea757ddfd3"><path d="M 40 37.027344 L 104 37.027344 L 104 49 L 40 49 Z M 40 37.027344 " clip-rule="nonzero"/></clipPath><clipPath id="42aa7ad551"><path d="M 40 53 L 69 53 L 69 78.386719 L 40 78.386719 Z M 40 53 " clip-rule="nonzero"/></clipPath><clipPath id="70db31417e"><path d="M 46 58 L 66 58 L 66 78.386719 L 46 78.386719 Z M 46 58 " clip-rule="nonzero"/></clipPath><clipPath id="47a6da5ea9"><path d="M 51 65 L 64 65 L 64 78.386719 L 51 78.386719 Z M 51 65 " clip-rule="nonzero"/></clipPath><clipPath id="221fb12ac5"><path d="M 39 59 L 65 59 L 65 78.386719 L 39 78.386719 Z M 39 59 " clip-rule="nonzero"/></clipPath><clipPath id="bf49e11efd"><path d="M 45 65 L 63 65 L 63 78.386719 L 45 78.386719 Z M 45 65 " clip-rule="nonzero"/></clipPath><clipPath id="72dcb7887d"><path d="M 51 70 L 61 70 L 61 78.386719 L 51 78.386719 Z M 51 70 " clip-rule="nonzero"/></clipPath><clipPath id="cfef9e4f0c"><path d="M 34.75 48 L 68 48 L 68 78.386719 L 34.75 78.386719 Z M 34.75 48 " clip-rule="nonzero"/></clipPath><clipPath id="12bda5751a"><path d="M 34.75 37.027344 L 109.515625 37.027344 L 109.515625 64 L 34.75 64 Z M 34.75 37.027344 " clip-rule="nonzero"/></clipPath></defs><path fill="#ffc75d" d="M 72.195312 140.839844 C 122.332031 125.226562 131.730469 72.136719 131.730469 28.417969 C 131.730469 28.417969 97.261719 22.171875 72.195312 3.433594 C 47.125 22.171875 12.65625 28.417969 12.65625 28.417969 C 12.65625 72.136719 22.058594 125.226562 72.195312 140.839844 Z M 72.195312 140.839844 " fill-opacity="1" fill-rule="nonzero"/><path fill="#ff8c07" d="M 131.730469 28.417969 C 131.730469 28.417969 97.261719 22.171875 72.195312 3.433594 L 72.195312 140.839844 C 122.332031 125.226562 131.730469 72.136719 131.730469 28.417969 Z M 131.730469 28.417969 " fill-opacity="1" fill-rule="nonzero"/><path fill="#ffffff" d="M 72.195312 124.289062 C 45.039062 113.519531 30.710938 86.046875 28.601562 40.632812 C 43.953125 36.445312 58.484375 30.320312 72.195312 22.257812 C 85.902344 30.320312 100.433594 36.445312 115.789062 40.632812 C 113.675781 86.046875 99.351562 113.519531 72.195312 124.289062 Z M 72.195312 124.289062 " fill-opacity="1" fill-rule="nonzero"/><path fill="#dee7f6" d="M 115.789062 40.632812 C 100.433594 36.445312 85.902344 30.320312 72.195312 22.257812 L 72.195312 124.289062 C 99.351562 113.519531 113.675781 86.046875 115.789062 40.632812 Z M 115.789062 40.632812 " fill-opacity="1" fill-rule="nonzero"/><g clip-path="url(#87c676e236)"><path fill="#09105a" d="M 72.195312 143.960938 C 71.875 143.964844 71.558594 143.917969 71.253906 143.820312 C 30.292969 131.0625 9.523438 92.234375 9.523438 28.417969 C 9.523438 28.050781 9.585938 27.699219 9.710938 27.351562 C 9.835938 27.007812 10.015625 26.699219 10.25 26.417969 C 10.484375 26.136719 10.761719 25.902344 11.078125 25.71875 C 11.394531 25.535156 11.734375 25.410156 12.097656 25.34375 C 12.433594 25.292969 46.15625 18.992188 70.3125 0.9375 C 70.585938 0.734375 70.882812 0.578125 71.203125 0.472656 C 71.523438 0.367188 71.855469 0.3125 72.195312 0.3125 C 72.535156 0.3125 72.863281 0.367188 73.183594 0.472656 C 73.507812 0.578125 73.804688 0.734375 74.074219 0.9375 C 98.234375 18.992188 131.953125 25.292969 132.292969 25.34375 C 132.652344 25.410156 132.992188 25.535156 133.308594 25.71875 C 133.625 25.902344 133.902344 26.136719 134.136719 26.417969 C 134.371094 26.699219 134.554688 27.007812 134.679688 27.351562 C 134.804688 27.699219 134.867188 28.050781 134.867188 28.417969 C 134.867188 92.234375 114.097656 131.0625 73.132812 143.820312 C 72.828125 143.917969 72.515625 143.964844 72.195312 143.960938 Z M 15.789062 30.964844 C 16.324219 89.726562 35.289062 125.585938 72.195312 137.558594 C 109.09375 125.574219 128.054688 89.726562 128.597656 30.964844 C 120.238281 29.164062 93.582031 22.535156 72.195312 7.304688 C 50.816406 22.523438 24.160156 29.164062 15.789062 30.964844 Z M 15.789062 30.964844 " fill-opacity="1" fill-rule="nonzero"/></g><path fill="#09105a" d="M 72.195312 127.410156 C 71.792969 127.410156 71.40625 127.335938 71.035156 127.191406 C 42.554688 115.898438 27.652344 87.628906 25.46875 40.777344 C 25.453125 40.425781 25.496094 40.082031 25.597656 39.742188 C 25.699219 39.402344 25.851562 39.09375 26.058594 38.804688 C 26.265625 38.519531 26.515625 38.277344 26.804688 38.074219 C 27.09375 37.871094 27.410156 37.722656 27.75 37.625 C 42.828125 33.519531 57.097656 27.507812 70.5625 19.59375 C 71.0625 19.289062 71.605469 19.136719 72.195312 19.136719 C 72.78125 19.136719 73.324219 19.289062 73.828125 19.59375 C 87.289062 27.507812 101.558594 33.519531 116.636719 37.625 C 116.976562 37.722656 117.292969 37.871094 117.582031 38.074219 C 117.875 38.277344 118.121094 38.519531 118.328125 38.804688 C 118.535156 39.09375 118.691406 39.402344 118.792969 39.742188 C 118.894531 40.082031 118.933594 40.425781 118.917969 40.777344 C 116.726562 87.621094 101.835938 115.898438 73.355469 127.191406 C 72.980469 127.335938 72.59375 127.410156 72.195312 127.410156 Z M 31.855469 42.949219 C 34.277344 84.960938 47.472656 110.5 72.195312 120.914062 C 96.914062 110.5 110.109375 84.960938 112.53125 42.949219 C 98.394531 38.894531 84.945312 33.214844 72.195312 25.902344 C 59.441406 33.214844 45.996094 38.894531 31.855469 42.949219 Z M 31.855469 42.949219 " fill-opacity="1" fill-rule="nonzero"/><path fill="#09105a" d="M 71.992188 64.957031 L 56.125 49.089844 L 48.292969 49.089844 C 48.1875 48.621094 47.769531 48.265625 47.265625 48.265625 C 46.6875 48.265625 46.214844 48.738281 46.214844 49.320312 C 46.214844 49.898438 46.6875 50.371094 47.265625 50.371094 C 47.761719 50.371094 48.171875 50.03125 48.285156 49.574219 L 55.925781 49.574219 L 71.648438 65.296875 L 71.648438 65.300781 L 71.988281 65.640625 L 71.992188 65.640625 L 72.335938 65.300781 L 72.335938 65.296875 L 88.058594 49.574219 L 95.699219 49.574219 C 95.8125 50.03125 96.222656 50.371094 96.71875 50.371094 C 97.296875 50.371094 97.769531 49.898438 97.769531 49.320312 C 97.769531 48.738281 97.296875 48.265625 96.71875 48.265625 C 96.214844 48.265625 95.792969 48.621094 95.691406 49.089844 L 87.859375 49.089844 L 71.992188 64.957031 " fill-opacity="1" fill-rule="nonzero"/><path fill="#09105a" d="M 106.667969 43.429688 L 103.667969 43.429688 L 100.378906 46.714844 L 100.378906 50.054688 L 98.386719 52.046875 L 87.011719 52.046875 L 71.992188 67.066406 L 56.972656 52.046875 L 45.59375 52.046875 L 43.601562 50.054688 L 43.601562 46.714844 L 40.316406 43.429688 L 37.316406 43.429688 C 37.210938 42.960938 36.792969 42.609375 36.289062 42.609375 C 35.710938 42.609375 35.238281 43.078125 35.238281 43.660156 C 35.238281 44.242188 35.710938 44.710938 36.289062 44.710938 C 36.785156 44.710938 37.195312 44.371094 37.3125 43.914062 L 40.117188 43.914062 L 43.117188 46.917969 L 43.117188 50.253906 L 45.394531 52.53125 L 56.769531 52.53125 L 71.648438 67.410156 L 71.988281 67.753906 L 71.992188 67.753906 L 72.335938 67.410156 L 87.210938 52.53125 L 98.589844 52.53125 L 100.867188 50.253906 L 100.867188 46.917969 L 103.867188 43.914062 L 106.671875 43.914062 C 106.785156 44.371094 107.199219 44.710938 107.691406 44.710938 C 108.273438 44.710938 108.746094 44.242188 108.746094 43.660156 C 108.746094 43.078125 108.273438 42.609375 107.691406 42.609375 C 107.191406 42.609375 106.773438 42.960938 106.667969 43.429688 " fill-opacity="1" fill-rule="nonzero"/><path fill="#09105a" d="M 71.992188 68.890625 L 58.070312 54.96875 L 53.929688 54.96875 C 53.8125 54.519531 53.402344 54.191406 52.917969 54.191406 C 52.335938 54.191406 51.863281 54.660156 51.863281 55.242188 C 51.863281 55.824219 52.335938 56.292969 52.917969 56.292969 C 53.425781 56.292969 53.847656 55.933594 53.949219 55.453125 L 57.871094 55.453125 L 71.648438 69.234375 L 71.988281 69.578125 L 71.992188 69.574219 L 71.992188 69.578125 L 72.335938 69.234375 L 86.113281 55.453125 L 90.035156 55.453125 C 90.132812 55.933594 90.558594 56.292969 91.066406 56.292969 C 91.648438 56.292969 92.117188 55.824219 92.117188 55.242188 C 92.117188 54.660156 91.648438 54.191406 91.066406 54.191406 C 90.582031 54.191406 90.171875 54.519531 90.050781 54.96875 L 85.914062 54.96875 L 71.992188 68.890625 " fill-opacity="1" fill-rule="nonzero"/><path fill="#09105a" d="M 44.96875 53.398438 L 42.015625 50.445312 C 42.105469 50.289062 42.160156 50.109375 42.160156 49.917969 C 42.160156 49.335938 41.6875 48.867188 41.105469 48.867188 C 40.523438 48.867188 40.054688 49.335938 40.054688 49.917969 C 40.054688 50.496094 40.523438 50.96875 41.105469 50.96875 C 41.320312 50.96875 41.515625 50.90625 41.683594 50.796875 L 44.769531 53.882812 L 47.285156 53.882812 L 51.542969 58.144531 L 58.609375 58.144531 L 71.648438 71.183594 L 71.988281 71.527344 L 71.992188 71.523438 L 71.992188 71.527344 L 85.375 58.144531 L 92.4375 58.144531 L 96.699219 53.882812 L 99.214844 53.882812 L 102.300781 50.796875 C 102.464844 50.90625 102.664062 50.96875 102.878906 50.96875 C 103.457031 50.96875 103.929688 50.496094 103.929688 49.917969 C 103.929688 49.335938 103.457031 48.867188 102.878906 48.867188 C 102.296875 48.867188 101.824219 49.335938 101.824219 49.917969 C 101.824219 50.109375 101.878906 50.289062 101.96875 50.445312 L 99.011719 53.398438 L 96.5 53.398438 L 92.238281 57.660156 L 85.171875 57.660156 L 71.992188 70.839844 L 58.808594 57.660156 L 51.746094 57.660156 L 47.484375 53.398438 L 44.96875 53.398438 " fill-opacity="1" fill-rule="nonzero"/><g clip-path="url(#d0e4fed262)"><path fill="#09105a" d="M 75.78125 77.996094 L 75.78125 76.425781 L 75.648438 76.425781 L 75.648438 69.507812 L 85.707031 59.449219 L 93.195312 59.449219 L 97.539062 55.105469 L 101.53125 55.105469 C 101.667969 55.53125 102.0625 55.839844 102.53125 55.839844 C 103.113281 55.839844 103.582031 55.367188 103.582031 54.785156 C 103.582031 54.207031 103.113281 53.734375 102.53125 53.734375 C 102.007812 53.734375 101.574219 54.121094 101.496094 54.621094 L 97.339844 54.621094 L 92.996094 58.964844 L 85.503906 58.964844 L 75.164062 69.304688 L 75.164062 76.425781 L 75.003906 76.425781 L 75.003906 77.996094 C 75.003906 78.210938 75.179688 78.382812 75.394531 78.382812 C 75.609375 78.382812 75.78125 78.210938 75.78125 77.996094 " fill-opacity="1" fill-rule="nonzero"/></g><g clip-path="url(#efec3bb8a7)"><path fill="#09105a" d="M 95.746094 59.964844 C 95.746094 60.167969 95.804688 60.359375 95.90625 60.519531 L 94.679688 61.746094 L 86.828125 61.746094 L 78.171875 70.402344 L 78.171875 76.425781 L 78.007812 76.425781 L 78.007812 77.996094 C 78.007812 78.210938 78.183594 78.382812 78.398438 78.382812 C 78.613281 78.382812 78.785156 78.210938 78.785156 77.996094 L 78.785156 76.425781 L 78.65625 76.425781 L 78.65625 70.601562 L 87.027344 62.230469 L 94.882812 62.230469 L 96.25 60.863281 C 96.410156 60.957031 96.597656 61.015625 96.796875 61.015625 C 97.378906 61.015625 97.847656 60.546875 97.847656 59.964844 C 97.847656 59.382812 97.378906 58.914062 96.796875 58.914062 C 96.214844 58.914062 95.746094 59.382812 95.746094 59.964844 " fill-opacity="1" fill-rule="nonzero"/></g><g clip-path="url(#87bef103b1)"><path fill="#09105a" d="M 80.574219 77.996094 C 80.574219 78.210938 80.746094 78.382812 80.960938 78.382812 C 81.175781 78.382812 81.351562 78.210938 81.351562 77.996094 L 81.351562 76.425781 L 81.21875 76.425781 L 81.21875 72.191406 L 86.726562 66.683594 L 90.332031 66.683594 C 90.449219 67.136719 90.859375 67.472656 91.351562 67.472656 C 91.929688 67.472656 92.402344 67 92.402344 66.421875 C 92.402344 65.839844 91.929688 65.367188 91.351562 65.367188 C 90.847656 65.367188 90.425781 65.722656 90.324219 66.199219 L 86.527344 66.199219 L 80.734375 71.988281 L 80.734375 76.425781 L 80.574219 76.425781 L 80.574219 77.996094 " fill-opacity="1" fill-rule="nonzero"/></g><g clip-path="url(#9213c1142c)"><path fill="#09105a" d="M 102.40625 60.105469 L 101.421875 60.105469 L 98.53125 62.996094 L 87.457031 62.996094 L 79.375 71.074219 L 79.375 76.425781 L 79.203125 76.425781 L 79.203125 77.996094 C 79.203125 78.210938 79.378906 78.382812 79.589844 78.382812 C 79.804688 78.382812 79.980469 78.210938 79.980469 77.996094 L 79.980469 76.425781 L 79.859375 76.425781 L 79.859375 71.277344 L 87.65625 63.480469 L 98.734375 63.480469 L 101.625 60.589844 L 102.417969 60.589844 C 102.539062 61.039062 102.949219 61.371094 103.4375 61.371094 C 104.015625 61.371094 104.488281 60.902344 104.488281 60.320312 C 104.488281 59.738281 104.015625 59.269531 103.4375 59.269531 C 102.929688 59.269531 102.507812 59.628906 102.40625 60.105469 " fill-opacity="1" fill-rule="nonzero"/></g><g clip-path="url(#dd5e0229bc)"><path fill="#09105a" d="M 96.089844 65.945312 L 95.644531 65.945312 L 92.796875 68.792969 L 86.039062 68.792969 L 82.121094 72.710938 L 82.121094 76.425781 L 81.960938 76.425781 L 81.960938 77.996094 C 81.960938 78.210938 82.132812 78.382812 82.347656 78.382812 C 82.5625 78.382812 82.738281 78.210938 82.738281 77.996094 L 82.738281 76.425781 L 82.605469 76.425781 L 82.605469 72.914062 L 86.242188 69.273438 L 93 69.273438 L 95.84375 66.429688 L 96.097656 66.429688 C 96.210938 66.886719 96.625 67.226562 97.117188 67.226562 C 97.699219 67.226562 98.167969 66.757812 98.167969 66.175781 C 98.167969 65.597656 97.699219 65.125 97.117188 65.125 C 96.613281 65.125 96.199219 65.476562 96.089844 65.945312 " fill-opacity="1" fill-rule="nonzero"/></g><g clip-path="url(#853fd9b512)"><path fill="#09105a" d="M 83.503906 76.425781 L 83.324219 76.425781 L 83.324219 77.996094 C 83.324219 78.210938 83.5 78.382812 83.714844 78.382812 C 83.929688 78.382812 84.101562 78.210938 84.101562 77.996094 L 84.101562 76.425781 L 83.988281 76.425781 L 83.988281 73.585938 L 86.878906 70.695312 L 91.734375 70.695312 L 91.734375 72.441406 C 91.246094 72.53125 90.878906 72.960938 90.878906 73.472656 C 90.878906 74.054688 91.351562 74.523438 91.929688 74.523438 C 92.511719 74.523438 92.980469 74.054688 92.980469 73.472656 C 92.980469 72.992188 92.660156 72.589844 92.21875 72.460938 L 92.21875 70.210938 L 86.679688 70.210938 L 83.503906 73.386719 L 83.503906 76.425781 " fill-opacity="1" fill-rule="nonzero"/></g><g clip-path="url(#c6616fc6af)"><path fill="#09105a" d="M 106.890625 49.621094 C 106.890625 49.816406 106.945312 50 107.039062 50.160156 L 105.910156 51.289062 L 105.910156 55.097656 L 104.117188 56.886719 L 96.984375 56.886719 L 93.792969 60.082031 L 85.972656 60.082031 L 76.75 69.304688 L 76.75 76.425781 L 76.59375 76.425781 L 76.59375 77.996094 C 76.59375 78.210938 76.765625 78.382812 76.980469 78.382812 C 77.195312 78.382812 77.367188 78.210938 77.367188 77.996094 L 77.367188 76.425781 L 77.234375 76.425781 L 77.234375 69.507812 L 86.175781 60.566406 L 93.992188 60.566406 L 97.1875 57.371094 L 104.316406 57.371094 L 106.394531 55.296875 L 106.394531 51.488281 L 107.378906 50.507812 C 107.539062 50.613281 107.734375 50.671875 107.945312 50.671875 C 108.523438 50.671875 108.996094 50.203125 108.996094 49.621094 C 108.996094 49.039062 108.523438 48.570312 107.945312 48.570312 C 107.363281 48.570312 106.890625 49.039062 106.890625 49.621094 " fill-opacity="1" fill-rule="nonzero"/></g><g clip-path="url(#ea757ddfd3)"><path fill="#09105a" d="M 101.277344 37.574219 L 99.734375 37.574219 L 94.636719 42.671875 L 94.636719 44.789062 L 93.285156 46.140625 L 74.027344 46.140625 L 71.992188 48.179688 L 69.953125 46.140625 L 50.699219 46.140625 L 49.347656 44.789062 L 49.347656 42.671875 L 44.246094 37.574219 L 42.707031 37.574219 C 42.597656 37.109375 42.179688 36.761719 41.683594 36.761719 C 41.101562 36.761719 40.632812 37.234375 40.632812 37.8125 C 40.632812 38.394531 41.101562 38.867188 41.683594 38.867188 C 42.179688 38.867188 42.597656 38.519531 42.707031 38.054688 L 44.046875 38.054688 L 48.863281 42.871094 L 48.863281 44.992188 L 50.5 46.625 L 69.753906 46.625 L 71.648438 48.519531 L 71.648438 48.523438 L 71.988281 48.867188 L 71.992188 48.863281 L 71.992188 48.867188 L 72.335938 48.523438 L 72.335938 48.519531 L 74.230469 46.625 L 93.484375 46.625 L 95.121094 44.992188 L 95.121094 42.871094 L 99.9375 38.054688 L 101.277344 38.054688 C 101.386719 38.519531 101.800781 38.867188 102.300781 38.867188 C 102.882812 38.867188 103.351562 38.394531 103.351562 37.8125 C 103.351562 37.234375 102.882812 36.761719 102.300781 36.761719 C 101.800781 36.761719 101.386719 37.109375 101.277344 37.574219 " fill-opacity="1" fill-rule="nonzero"/></g><g clip-path="url(#42aa7ad551)"><path fill="#09105a" d="M 68.960938 77.996094 L 68.960938 76.425781 L 68.820312 76.425781 L 68.820312 69.304688 L 58.480469 58.964844 L 50.988281 58.964844 L 46.644531 54.621094 L 42.488281 54.621094 C 42.410156 54.121094 41.976562 53.734375 41.453125 53.734375 C 40.871094 53.734375 40.398438 54.207031 40.398438 54.785156 C 40.398438 55.367188 40.871094 55.839844 41.453125 55.839844 C 41.921875 55.839844 42.316406 55.53125 42.453125 55.105469 L 46.445312 55.105469 L 50.785156 59.449219 L 58.277344 59.449219 L 68.335938 69.507812 L 68.335938 76.425781 L 68.183594 76.425781 L 68.183594 77.996094 C 68.183594 78.210938 68.359375 78.382812 68.574219 78.382812 C 68.789062 78.382812 68.960938 78.210938 68.960938 77.996094 " fill-opacity="1" fill-rule="nonzero"/></g><g clip-path="url(#70db31417e)"><path fill="#09105a" d="M 65.957031 77.996094 L 65.957031 76.425781 L 65.8125 76.425781 L 65.8125 70.402344 L 57.15625 61.746094 L 49.300781 61.746094 L 48.078125 60.519531 C 48.179688 60.359375 48.238281 60.167969 48.238281 59.964844 C 48.238281 59.382812 47.769531 58.914062 47.1875 58.914062 C 46.605469 58.914062 46.132812 59.382812 46.132812 59.964844 C 46.132812 60.546875 46.605469 61.015625 47.1875 61.015625 C 47.386719 61.015625 47.574219 60.957031 47.734375 60.863281 L 49.101562 62.230469 L 56.957031 62.230469 L 65.328125 70.601562 L 65.328125 76.425781 L 65.183594 76.425781 L 65.183594 77.996094 C 65.183594 78.210938 65.355469 78.382812 65.570312 78.382812 C 65.785156 78.382812 65.957031 78.210938 65.957031 77.996094 " fill-opacity="1" fill-rule="nonzero"/></g><g clip-path="url(#47a6da5ea9)"><path fill="#09105a" d="M 63.394531 77.996094 L 63.394531 76.425781 L 63.25 76.425781 L 63.25 71.988281 L 57.457031 66.199219 L 53.660156 66.199219 C 53.558594 65.722656 53.136719 65.367188 52.632812 65.367188 C 52.050781 65.367188 51.582031 65.839844 51.582031 66.421875 C 51.582031 67 52.050781 67.472656 52.632812 67.472656 C 53.125 67.472656 53.535156 67.136719 53.652344 66.683594 L 57.253906 66.683594 L 62.765625 72.191406 L 62.765625 76.425781 L 62.617188 76.425781 L 62.617188 77.996094 C 62.617188 78.210938 62.789062 78.382812 63.003906 78.382812 C 63.21875 78.382812 63.394531 78.210938 63.394531 77.996094 " fill-opacity="1" fill-rule="nonzero"/></g><path fill="#09105a" d="M 71.820312 43.492188 L 53.9375 43.492188 C 53.832031 43.027344 53.414062 42.683594 52.917969 42.683594 C 52.335938 42.683594 51.863281 43.15625 51.863281 43.734375 C 51.863281 44.316406 52.335938 44.789062 52.917969 44.789062 C 53.414062 44.789062 53.832031 44.441406 53.9375 43.976562 L 90.042969 43.976562 C 90.152344 44.441406 90.570312 44.789062 91.066406 44.789062 C 91.648438 44.789062 92.117188 44.316406 92.117188 43.734375 C 92.117188 43.15625 91.648438 42.683594 91.066406 42.683594 C 90.570312 42.683594 90.152344 43.027344 90.042969 43.492188 L 71.820312 43.492188 " fill-opacity="1" fill-rule="nonzero"/><g clip-path="url(#221fb12ac5)"><path fill="#09105a" d="M 64.761719 77.996094 L 64.761719 76.425781 L 64.609375 76.425781 L 64.609375 71.074219 L 56.527344 62.996094 L 45.453125 62.996094 L 42.5625 60.105469 L 41.574219 60.105469 C 41.476562 59.628906 41.054688 59.269531 40.546875 59.269531 C 39.964844 59.269531 39.496094 59.738281 39.496094 60.320312 C 39.496094 60.902344 39.964844 61.371094 40.546875 61.371094 C 41.035156 61.371094 41.445312 61.039062 41.5625 60.589844 L 42.359375 60.589844 L 45.25 63.480469 L 56.328125 63.480469 L 64.125 71.277344 L 64.125 76.425781 L 63.988281 76.425781 L 63.988281 77.996094 C 63.988281 78.210938 64.160156 78.382812 64.375 78.382812 C 64.589844 78.382812 64.761719 78.210938 64.761719 77.996094 " fill-opacity="1" fill-rule="nonzero"/></g><g clip-path="url(#bf49e11efd)"><path fill="#09105a" d="M 62.007812 77.996094 L 62.007812 76.425781 L 61.863281 76.425781 L 61.863281 72.710938 L 57.945312 68.792969 L 51.1875 68.792969 L 48.339844 65.945312 L 47.890625 65.945312 C 47.785156 65.476562 47.367188 65.125 46.867188 65.125 C 46.285156 65.125 45.816406 65.597656 45.816406 66.175781 C 45.816406 66.757812 46.285156 67.226562 46.867188 67.226562 C 47.359375 67.226562 47.773438 66.886719 47.886719 66.429688 L 48.136719 66.429688 L 50.984375 69.273438 L 57.742188 69.273438 L 61.378906 72.914062 L 61.378906 76.425781 L 61.230469 76.425781 L 61.230469 77.996094 C 61.230469 78.210938 61.40625 78.382812 61.617188 78.382812 C 61.832031 78.382812 62.007812 78.210938 62.007812 77.996094 " fill-opacity="1" fill-rule="nonzero"/></g><g clip-path="url(#72dcb7887d)"><path fill="#09105a" d="M 60.640625 77.996094 L 60.640625 76.425781 L 60.480469 76.425781 L 60.480469 73.386719 L 57.304688 70.210938 L 51.765625 70.210938 L 51.765625 72.460938 C 51.324219 72.589844 51 72.992188 51 73.472656 C 51 74.054688 51.472656 74.523438 52.054688 74.523438 C 52.632812 74.523438 53.105469 74.054688 53.105469 73.472656 C 53.105469 72.960938 52.734375 72.53125 52.25 72.441406 L 52.25 70.695312 L 57.105469 70.695312 L 59.996094 73.585938 L 59.996094 76.425781 L 59.863281 76.425781 L 59.863281 77.996094 C 59.863281 78.210938 60.039062 78.382812 60.253906 78.382812 C 60.46875 78.382812 60.640625 78.210938 60.640625 77.996094 " fill-opacity="1" fill-rule="nonzero"/></g><g clip-path="url(#cfef9e4f0c)"><path fill="#09105a" d="M 67.375 77.996094 L 67.375 76.425781 L 67.230469 76.425781 L 67.230469 69.304688 L 58.011719 60.082031 L 50.191406 60.082031 L 46.996094 56.886719 L 39.867188 56.886719 L 38.074219 55.097656 L 38.074219 51.289062 L 36.945312 50.160156 C 37.039062 50 37.09375 49.816406 37.09375 49.621094 C 37.09375 49.039062 36.621094 48.570312 36.039062 48.570312 C 35.460938 48.570312 34.988281 49.039062 34.988281 49.621094 C 34.988281 50.203125 35.460938 50.671875 36.039062 50.671875 C 36.25 50.671875 36.441406 50.613281 36.605469 50.507812 L 37.589844 51.488281 L 37.589844 55.296875 L 39.667969 57.371094 L 46.796875 57.371094 L 49.992188 60.566406 L 57.808594 60.566406 L 66.746094 69.507812 L 66.746094 76.425781 L 66.597656 76.425781 L 66.597656 77.996094 C 66.597656 78.210938 66.773438 78.382812 66.988281 78.382812 C 67.203125 78.382812 67.375 78.210938 67.375 77.996094 " fill-opacity="1" fill-rule="nonzero"/></g><g clip-path="url(#12bda5751a)"><path fill="#09105a" d="M 107.105469 38.554688 C 107.105469 38.75 107.160156 38.933594 107.253906 39.089844 L 105.355469 40.988281 L 101.132812 40.988281 L 94.34375 47.777344 L 86.933594 47.777344 L 71.992188 62.71875 L 57.050781 47.777344 L 49.640625 47.777344 L 42.851562 40.988281 L 38.628906 40.988281 L 36.730469 39.089844 C 36.824219 38.933594 36.878906 38.75 36.878906 38.554688 C 36.878906 37.972656 36.40625 37.503906 35.828125 37.503906 C 35.246094 37.503906 34.773438 37.972656 34.773438 38.554688 C 34.773438 39.136719 35.246094 39.605469 35.828125 39.605469 C 36.035156 39.605469 36.230469 39.542969 36.394531 39.4375 L 38.429688 41.472656 L 42.652344 41.472656 L 49.4375 48.257812 L 56.847656 48.257812 L 71.648438 63.058594 L 71.648438 63.0625 L 71.988281 63.402344 L 71.992188 63.402344 L 72.335938 63.0625 L 72.335938 63.058594 L 87.132812 48.257812 L 94.546875 48.257812 L 101.332031 41.472656 L 105.554688 41.472656 L 107.589844 39.4375 C 107.753906 39.542969 107.949219 39.605469 108.15625 39.605469 C 108.738281 39.605469 109.210938 39.136719 109.210938 38.554688 C 109.210938 37.972656 108.738281 37.503906 108.15625 37.503906 C 107.574219 37.503906 107.105469 37.972656 107.105469 38.554688 " fill-opacity="1" fill-rule="nonzero"/></g><path fill="#09105a" d="M 73.921875 51.144531 L 70.40625 51.144531 L 68.648438 54.191406 L 70.40625 57.234375 L 73.921875 57.234375 L 75.679688 54.191406 L 73.921875 51.144531 " fill-opacity="1" fill-rule="nonzero"/><path fill="#09105a" d="M 70.09375 57.78125 L 68.019531 54.191406 L 70.09375 50.601562 L 74.238281 50.601562 L 76.308594 54.191406 L 74.238281 57.78125 Z M 74.5625 58.34375 L 76.960938 54.191406 L 74.5625 50.035156 L 69.765625 50.035156 L 67.367188 54.191406 L 69.765625 58.34375 L 74.5625 58.34375 " fill-opacity="1" fill-rule="nonzero"/><g fill="#09105a" fill-opacity="1"><g transform="translate(45.386365, 97.598846)"><g><path d="M 8.671875 -17.34375 C 10.128906 -17.34375 11.351562 -17.097656 12.34375 -16.609375 C 13.332031 -16.117188 14.066406 -15.4375 14.546875 -14.5625 C 15.035156 -13.695312 15.28125 -12.691406 15.28125 -11.546875 C 15.28125 -10.484375 15.046875 -9.492188 14.578125 -8.578125 C 14.117188 -7.671875 13.453125 -6.941406 12.578125 -6.390625 C 11.703125 -5.847656 10.671875 -5.578125 9.484375 -5.578125 L 5.78125 -5.578125 L 5.78125 0 L 1.640625 0 L 1.640625 -17.34375 Z M 8.640625 -9.28125 C 9.347656 -9.28125 9.941406 -9.472656 10.421875 -9.859375 C 10.910156 -10.253906 11.15625 -10.785156 11.15625 -11.453125 C 11.15625 -12.179688 10.921875 -12.722656 10.453125 -13.078125 C 9.984375 -13.429688 9.378906 -13.609375 8.640625 -13.609375 L 5.78125 -13.609375 L 5.78125 -9.28125 Z M 8.640625 -9.28125 "/></g></g></g><g fill="#09105a" fill-opacity="1"><g transform="translate(61.474937, 97.598846)"><g><path d="M 5.78125 -5.578125 L 5.78125 0 L 1.640625 0 L 1.640625 -17.34375 L 8.671875 -17.34375 C 10.128906 -17.34375 11.351562 -17.097656 12.34375 -16.609375 C 13.332031 -16.117188 14.066406 -15.4375 14.546875 -14.5625 C 15.035156 -13.695312 15.28125 -12.691406 15.28125 -11.546875 C 15.28125 -10.296875 14.960938 -9.160156 14.328125 -8.140625 C 13.703125 -7.128906 12.832031 -6.398438 11.71875 -5.953125 L 16.09375 0 L 11.34375 0 L 7.484375 -5.578125 Z M 8.640625 -9.28125 C 9.347656 -9.28125 9.941406 -9.472656 10.421875 -9.859375 C 10.910156 -10.253906 11.15625 -10.785156 11.15625 -11.453125 C 11.15625 -12.179688 10.921875 -12.722656 10.453125 -13.078125 C 9.984375 -13.429688 9.378906 -13.609375 8.640625 -13.609375 L 5.78125 -13.609375 L 5.78125 -9.28125 Z M 8.640625 -9.28125 "/></g></g></g><g fill="#09105a" fill-opacity="1"><g transform="translate(78.395385, 97.598846)"><g><path d="M 10.125 -17.734375 C 11.800781 -17.734375 13.347656 -17.328125 14.765625 -16.515625 C 16.191406 -15.703125 17.320312 -14.597656 18.15625 -13.203125 C 18.988281 -11.816406 19.40625 -10.304688 19.40625 -8.671875 C 19.40625 -7.023438 18.988281 -5.503906 18.15625 -4.109375 C 17.320312 -2.722656 16.191406 -1.617188 14.765625 -0.796875 C 13.335938 0.015625 11.789062 0.421875 10.125 0.421875 C 8.4375 0.421875 6.878906 0.015625 5.453125 -0.796875 C 4.035156 -1.617188 2.910156 -2.722656 2.078125 -4.109375 C 1.242188 -5.503906 0.828125 -7.023438 0.828125 -8.671875 C 0.828125 -10.304688 1.242188 -11.816406 2.078125 -13.203125 C 2.910156 -14.597656 4.035156 -15.703125 5.453125 -16.515625 C 6.878906 -17.328125 8.4375 -17.734375 10.125 -17.734375 Z M 10.125 -3.296875 C 11.050781 -3.296875 11.90625 -3.535156 12.6875 -4.015625 C 13.476562 -4.503906 14.109375 -5.160156 14.578125 -5.984375 C 15.046875 -6.804688 15.28125 -7.703125 15.28125 -8.671875 C 15.28125 -9.640625 15.046875 -10.53125 14.578125 -11.34375 C 14.109375 -12.164062 13.476562 -12.816406 12.6875 -13.296875 C 11.90625 -13.785156 11.050781 -14.03125 10.125 -14.03125 C 9.1875 -14.03125 8.320312 -13.785156 7.53125 -13.296875 C 6.738281 -12.816406 6.109375 -12.171875 5.640625 -11.359375 C 5.179688 -10.546875 4.953125 -9.648438 4.953125 -8.671875 C 4.953125 -7.691406 5.179688 -6.789062 5.640625 -5.96875 C 6.109375 -5.15625 6.738281 -4.503906 7.53125 -4.015625 C 8.320312 -3.535156 9.1875 -3.296875 10.125 -3.296875 Z M 10.125 -3.296875 "/></g></g></g></svg>