<svg xmlns="http://www.w3.org/2000/svg" xmlns:xlink="http://www.w3.org/1999/xlink" width="512" zoomAndPan="magnify" viewBox="0 0 384 383.999986" height="512" preserveAspectRatio="xMidYMid meet" version="1.0"><defs><g/><clipPath id="b6b22f7da4"><path d="M 25 0 L 358.726562 0 L 358.726562 384 L 25 384 Z M 25 0 " clip-rule="nonzero"/></clipPath><clipPath id="2d370316f1"><path d="M 200 143 L 277 143 L 277 209.058594 L 200 209.058594 Z M 200 143 " clip-rule="nonzero"/></clipPath><clipPath id="4b0c024a99"><path d="M 208 157 L 261 157 L 261 209.058594 L 208 209.058594 Z M 208 157 " clip-rule="nonzero"/></clipPath><clipPath id="6eaa10aa9b"><path d="M 214 174 L 247 174 L 247 209.058594 L 214 209.058594 Z M 214 174 " clip-rule="nonzero"/></clipPath><clipPath id="9d17022a38"><path d="M 211 158 L 279 158 L 279 209.058594 L 211 209.058594 Z M 211 158 " clip-rule="nonzero"/></clipPath><clipPath id="b85873569a"><path d="M 218 173 L 262 173 L 262 209.058594 L 218 209.058594 Z M 218 173 " clip-rule="nonzero"/></clipPath><clipPath id="9a4b16e1cb"><path d="M 222 187 L 248 187 L 248 209.058594 L 222 209.058594 Z M 222 187 " clip-rule="nonzero"/></clipPath><clipPath id="98165b4834"><path d="M 204 129 L 291 129 L 291 209.058594 L 204 209.058594 Z M 204 129 " clip-rule="nonzero"/></clipPath><clipPath id="b9b17a528e"><path d="M 107 143 L 184 143 L 184 209.058594 L 107 209.058594 Z M 107 143 " clip-rule="nonzero"/></clipPath><clipPath id="1df3bcedff"><path d="M 123 157 L 176 157 L 176 209.058594 L 123 209.058594 Z M 123 157 " clip-rule="nonzero"/></clipPath><clipPath id="65d3055e7c"><path d="M 137 174 L 170 174 L 170 209.058594 L 137 209.058594 Z M 137 174 " clip-rule="nonzero"/></clipPath><clipPath id="bd58b46f78"><path d="M 105 158 L 173 158 L 173 209.058594 L 105 209.058594 Z M 105 158 " clip-rule="nonzero"/></clipPath><clipPath id="f32f82eb2b"><path d="M 122 173 L 166 173 L 166 209.058594 L 122 209.058594 Z M 122 173 " clip-rule="nonzero"/></clipPath><clipPath id="8372a06639"><path d="M 136 187 L 162 187 L 162 209.058594 L 136 209.058594 Z M 136 187 " clip-rule="nonzero"/></clipPath><clipPath id="c241539c56"><path d="M 93 129 L 180 129 L 180 209.058594 L 93 209.058594 Z M 93 129 " clip-rule="nonzero"/></clipPath><clipPath id="491e40642d"><path d="M 92.664062 100 L 291.335938 100 L 291.335938 170 L 92.664062 170 Z M 92.664062 100 " clip-rule="nonzero"/></clipPath></defs><path fill="#ffc75d" d="M 191.84375 376.089844 C 324.992188 334.394531 349.957031 192.632812 349.957031 75.886719 C 349.957031 75.886719 258.417969 59.207031 191.84375 9.171875 C 125.269531 59.207031 33.730469 75.886719 33.730469 75.886719 C 33.730469 192.632812 58.695312 334.394531 191.84375 376.089844 Z M 191.84375 376.089844 " fill-opacity="1" fill-rule="nonzero"/><path fill="#ff8c07" d="M 349.957031 75.886719 C 349.957031 75.886719 258.417969 59.207031 191.84375 9.171875 L 191.84375 376.089844 C 324.992188 334.394531 349.957031 192.632812 349.957031 75.886719 Z M 349.957031 75.886719 " fill-opacity="1" fill-rule="nonzero"/><path fill="#ffffff" d="M 191.84375 331.890625 C 119.726562 303.140625 81.679688 229.773438 76.070312 108.507812 C 96.367188 102.941406 116.207031 96.046875 135.589844 87.832031 C 154.96875 79.617188 173.722656 70.152344 191.84375 59.433594 C 209.964844 70.152344 228.71875 79.617188 248.097656 87.832031 C 267.480469 96.046875 287.320312 102.941406 307.617188 108.507812 C 302.007812 229.773438 263.960938 303.140625 191.84375 331.890625 Z M 191.84375 331.890625 " fill-opacity="1" fill-rule="nonzero"/><path fill="#dee7f6" d="M 307.617188 108.507812 C 287.320312 102.941406 267.480469 96.046875 248.097656 87.832031 C 228.71875 79.617188 209.964844 70.152344 191.84375 59.433594 L 191.84375 331.890625 C 263.960938 303.140625 302.007812 229.773438 307.617188 108.507812 Z M 307.617188 108.507812 " fill-opacity="1" fill-rule="nonzero"/><g clip-path="url(#b6b22f7da4)"><path fill="#09105a" d="M 191.84375 384.429688 C 190.992188 384.429688 190.160156 384.304688 189.347656 384.054688 C 80.5625 349.980469 25.40625 246.300781 25.40625 75.886719 C 25.40625 75.402344 25.449219 74.917969 25.53125 74.441406 C 25.617188 73.964844 25.738281 73.5 25.90625 73.042969 C 26.070312 72.585938 26.273438 72.148438 26.511719 71.730469 C 26.753906 71.308594 27.027344 70.914062 27.339844 70.542969 C 27.648438 70.167969 27.988281 69.828125 28.359375 69.515625 C 28.726562 69.203125 29.121094 68.921875 29.539062 68.679688 C 29.957031 68.433594 30.390625 68.230469 30.84375 68.0625 C 31.296875 67.894531 31.761719 67.765625 32.238281 67.679688 C 33.136719 67.546875 122.6875 50.71875 186.851562 2.5 C 187.570312 1.960938 188.359375 1.546875 189.210938 1.261719 C 190.066406 0.976562 190.941406 0.832031 191.84375 0.832031 C 192.742188 0.832031 193.621094 0.976562 194.476562 1.261719 C 195.328125 1.546875 196.117188 1.960938 196.835938 2.5 C 261 50.71875 350.550781 67.546875 351.449219 67.679688 C 351.925781 67.765625 352.386719 67.894531 352.84375 68.0625 C 353.296875 68.230469 353.730469 68.433594 354.148438 68.679688 C 354.566406 68.921875 354.960938 69.203125 355.328125 69.515625 C 355.699219 69.828125 356.039062 70.167969 356.347656 70.542969 C 356.65625 70.914062 356.933594 71.308594 357.175781 71.730469 C 357.414062 72.148438 357.617188 72.585938 357.78125 73.042969 C 357.949219 73.5 358.070312 73.964844 358.15625 74.441406 C 358.238281 74.917969 358.28125 75.402344 358.28125 75.886719 C 358.28125 246.300781 303.125 349.980469 194.339844 384.054688 C 193.527344 384.304688 192.695312 384.429688 191.84375 384.429688 Z M 42.050781 82.691406 C 43.464844 239.605469 93.828125 335.363281 191.84375 367.332031 C 289.832031 335.328125 340.195312 239.605469 341.636719 82.691406 C 319.433594 77.878906 248.640625 60.175781 191.84375 19.503906 C 135.070312 60.140625 64.277344 77.878906 42.050781 82.691406 Z M 42.050781 82.691406 " fill-opacity="1" fill-rule="nonzero"/></g><path fill="#09105a" d="M 191.84375 340.230469 C 190.78125 340.230469 189.753906 340.03125 188.765625 339.640625 C 113.128906 309.484375 73.546875 234 67.757812 108.890625 C 67.734375 108.421875 67.753906 107.957031 67.808594 107.492188 C 67.867188 107.03125 67.960938 106.574219 68.09375 106.125 C 68.226562 105.675781 68.394531 105.242188 68.601562 104.824219 C 68.808594 104.402344 69.046875 104.003906 69.320312 103.625 C 69.59375 103.246094 69.898438 102.890625 70.230469 102.5625 C 70.5625 102.234375 70.917969 101.9375 71.300781 101.667969 C 71.683594 101.402344 72.085938 101.167969 72.507812 100.96875 C 72.929688 100.765625 73.367188 100.601562 73.816406 100.476562 C 93.746094 95.015625 113.230469 88.253906 132.261719 80.191406 C 151.296875 72.132812 169.710938 62.839844 187.507812 52.320312 C 188.160156 51.917969 188.855469 51.617188 189.589844 51.410156 C 190.328125 51.203125 191.078125 51.097656 191.84375 51.097656 C 192.609375 51.097656 193.359375 51.203125 194.09375 51.410156 C 194.832031 51.617188 195.527344 51.917969 196.179688 52.320312 C 213.976562 62.839844 232.390625 72.132812 251.425781 80.191406 C 270.457031 88.253906 289.941406 95.015625 309.871094 100.476562 C 310.320312 100.601562 310.757812 100.765625 311.179688 100.96875 C 311.601562 101.167969 312.003906 101.402344 312.386719 101.667969 C 312.769531 101.9375 313.125 102.234375 313.457031 102.5625 C 313.789062 102.890625 314.09375 103.246094 314.367188 103.625 C 314.640625 104.003906 314.878906 104.402344 315.085938 104.824219 C 315.289062 105.242188 315.460938 105.675781 315.59375 106.125 C 315.726562 106.574219 315.820312 107.03125 315.878906 107.492188 C 315.933594 107.957031 315.953125 108.421875 315.929688 108.890625 C 310.105469 233.976562 270.558594 309.484375 194.921875 339.640625 C 193.933594 340.03125 192.90625 340.230469 191.84375 340.230469 Z M 84.714844 114.6875 C 91.148438 226.878906 126.191406 295.074219 191.84375 322.878906 C 257.496094 295.074219 292.539062 226.878906 298.96875 114.6875 C 261.417969 103.867188 225.710938 88.691406 191.84375 69.164062 C 157.976562 88.691406 122.269531 103.867188 84.714844 114.6875 Z M 84.714844 114.6875 " fill-opacity="1" fill-rule="nonzero"/><path fill="#09105a" d="M 191.988281 173.230469 L 149.671875 130.914062 L 128.78125 130.914062 C 128.503906 129.660156 127.382812 128.71875 126.042969 128.71875 C 124.492188 128.71875 123.238281 129.976562 123.238281 131.523438 C 123.238281 133.074219 124.492188 134.332031 126.042969 134.332031 C 127.359375 134.332031 128.457031 133.425781 128.761719 132.207031 L 149.136719 132.207031 L 191.074219 174.144531 L 191.070312 174.148438 L 191.984375 175.0625 L 191.988281 175.058594 L 191.992188 175.0625 L 192.90625 174.148438 L 192.902344 174.144531 L 234.839844 132.207031 L 255.214844 132.207031 C 255.519531 133.425781 256.617188 134.332031 257.933594 134.332031 C 259.484375 134.332031 260.738281 133.074219 260.738281 131.523438 C 260.738281 129.976562 259.484375 128.71875 257.933594 128.71875 C 256.59375 128.71875 255.472656 129.660156 255.195312 130.914062 L 234.304688 130.914062 L 191.988281 173.230469 " fill-opacity="1" fill-rule="nonzero"/><path fill="#09105a" d="M 284.472656 115.816406 L 276.472656 115.816406 L 267.707031 124.585938 L 267.707031 133.488281 L 262.390625 138.804688 L 232.050781 138.804688 L 191.988281 178.863281 L 151.925781 138.804688 L 121.585938 138.804688 L 116.269531 133.488281 L 116.269531 124.585938 L 107.503906 115.816406 L 99.503906 115.816406 C 99.222656 114.566406 98.105469 113.628906 96.769531 113.628906 C 95.21875 113.628906 93.964844 114.886719 93.964844 116.433594 C 93.964844 117.984375 95.21875 119.238281 96.769531 119.238281 C 98.085938 119.238281 99.183594 118.332031 99.488281 117.109375 L 106.96875 117.109375 L 114.976562 125.117188 L 114.976562 134.023438 L 121.050781 140.097656 L 151.390625 140.097656 L 191.074219 179.777344 L 191.070312 179.78125 L 191.984375 180.695312 L 191.988281 180.691406 L 191.992188 180.695312 L 192.90625 179.78125 L 192.902344 179.777344 L 232.585938 140.097656 L 262.925781 140.097656 L 269 134.023438 L 269 125.117188 L 277.007812 117.109375 L 284.488281 117.109375 C 284.792969 118.332031 285.890625 119.238281 287.207031 119.238281 C 288.757812 119.238281 290.011719 117.984375 290.011719 116.433594 C 290.011719 114.886719 288.757812 113.628906 287.207031 113.628906 C 285.871094 113.628906 284.753906 114.566406 284.472656 115.816406 " fill-opacity="1" fill-rule="nonzero"/><path fill="#09105a" d="M 191.988281 183.726562 L 154.855469 146.59375 L 143.816406 146.59375 C 143.496094 145.402344 142.410156 144.519531 141.113281 144.519531 C 139.5625 144.519531 138.308594 145.773438 138.308594 147.324219 C 138.308594 148.875 139.5625 150.128906 141.113281 150.128906 C 142.46875 150.128906 143.601562 149.167969 143.863281 147.886719 L 154.320312 147.886719 L 191.074219 184.640625 L 191.070312 184.644531 L 191.984375 185.558594 L 191.988281 185.554688 L 191.992188 185.558594 L 192.90625 184.644531 L 192.902344 184.640625 L 229.65625 147.886719 L 240.113281 147.886719 C 240.375 149.167969 241.507812 150.128906 242.863281 150.128906 C 244.414062 150.128906 245.667969 148.875 245.667969 147.324219 C 245.667969 145.773438 244.414062 144.519531 242.863281 144.519531 C 241.566406 144.519531 240.480469 145.402344 240.15625 146.59375 L 229.121094 146.59375 L 191.988281 183.726562 " fill-opacity="1" fill-rule="nonzero"/><path fill="#09105a" d="M 119.917969 142.40625 L 112.039062 134.527344 C 112.277344 134.113281 112.417969 133.636719 112.417969 133.121094 C 112.417969 131.570312 111.164062 130.316406 109.613281 130.316406 C 108.0625 130.316406 106.808594 131.570312 106.808594 133.121094 C 106.808594 134.671875 108.0625 135.925781 109.613281 135.925781 C 110.179688 135.925781 110.707031 135.757812 111.148438 135.464844 L 119.382812 143.699219 L 126.089844 143.699219 L 137.453125 155.0625 L 156.296875 155.0625 L 191.074219 189.839844 L 191.070312 189.847656 L 191.984375 190.757812 L 191.988281 190.753906 L 191.992188 190.757812 L 192.90625 189.847656 L 192.902344 189.839844 L 227.679688 155.0625 L 246.523438 155.0625 L 257.886719 143.699219 L 264.59375 143.699219 L 272.828125 135.464844 C 273.269531 135.757812 273.796875 135.925781 274.363281 135.925781 C 275.914062 135.925781 277.167969 134.671875 277.167969 133.121094 C 277.167969 131.570312 275.914062 130.316406 274.363281 130.316406 C 272.8125 130.316406 271.558594 131.570312 271.558594 133.121094 C 271.558594 133.636719 271.699219 134.113281 271.941406 134.527344 L 264.058594 142.40625 L 257.351562 142.40625 L 245.988281 153.769531 L 227.144531 153.769531 L 191.988281 188.925781 L 156.832031 153.769531 L 137.988281 153.769531 L 126.625 142.40625 L 119.917969 142.40625 " fill-opacity="1" fill-rule="nonzero"/><g clip-path="url(#2d370316f1)"><path fill="#09105a" d="M 202.097656 208.011719 L 202.097656 203.828125 L 201.738281 203.828125 L 201.738281 185.371094 L 228.5625 158.542969 L 248.546875 158.542969 L 260.125 146.964844 L 270.773438 146.964844 C 271.136719 148.09375 272.191406 148.914062 273.441406 148.914062 C 274.992188 148.914062 276.246094 147.65625 276.246094 146.109375 C 276.246094 144.558594 274.992188 143.304688 273.441406 143.304688 C 272.042969 143.304688 270.886719 144.332031 270.675781 145.671875 L 259.589844 145.671875 L 248.011719 157.253906 L 228.03125 157.253906 L 200.636719 184.644531 L 200.445312 184.835938 L 200.445312 203.828125 L 200.023438 203.828125 L 200.023438 208.011719 C 200.023438 208.585938 200.488281 209.046875 201.0625 209.046875 C 201.632812 209.046875 202.097656 208.585938 202.097656 208.011719 " fill-opacity="1" fill-rule="nonzero"/></g><g clip-path="url(#4b0c024a99)"><path fill="#09105a" d="M 255.34375 159.917969 C 255.34375 160.464844 255.503906 160.972656 255.769531 161.40625 L 252.503906 164.671875 L 231.554688 164.671875 L 208.472656 187.757812 L 208.472656 203.828125 L 208.035156 203.828125 L 208.035156 208.011719 C 208.035156 208.585938 208.5 209.046875 209.070312 209.046875 C 209.644531 209.046875 210.105469 208.585938 210.105469 208.011719 L 210.105469 203.828125 L 209.765625 203.828125 L 209.765625 188.289062 L 232.089844 165.964844 L 253.039062 165.964844 L 256.6875 162.3125 C 257.117188 162.570312 257.613281 162.722656 258.148438 162.722656 C 259.695312 162.722656 260.953125 161.46875 260.953125 159.917969 C 260.953125 158.371094 259.695312 157.113281 258.148438 157.113281 C 256.597656 157.113281 255.34375 158.371094 255.34375 159.917969 " fill-opacity="1" fill-rule="nonzero"/></g><g clip-path="url(#6eaa10aa9b)"><path fill="#09105a" d="M 214.878906 208.011719 C 214.878906 208.585938 215.339844 209.046875 215.914062 209.046875 C 216.488281 209.046875 216.949219 208.585938 216.949219 208.011719 L 216.949219 203.828125 L 216.597656 203.828125 L 216.597656 192.527344 L 231.292969 177.835938 L 240.90625 177.835938 C 241.21875 179.046875 242.3125 179.941406 243.621094 179.941406 C 245.167969 179.941406 246.425781 178.6875 246.425781 177.136719 C 246.425781 175.589844 245.167969 174.332031 243.621094 174.332031 C 242.273438 174.332031 241.152344 175.28125 240.878906 176.542969 L 230.757812 176.542969 L 215.308594 191.992188 L 215.308594 203.828125 L 214.878906 203.828125 L 214.878906 208.011719 " fill-opacity="1" fill-rule="nonzero"/></g><g clip-path="url(#9d17022a38)"><path fill="#09105a" d="M 273.113281 160.292969 L 270.484375 160.292969 L 262.777344 168 L 233.234375 168 L 211.679688 189.554688 L 211.679688 203.828125 L 211.226562 203.828125 L 211.226562 208.011719 C 211.226562 208.585938 211.6875 209.046875 212.257812 209.046875 C 212.832031 209.046875 213.292969 208.585938 213.292969 208.011719 L 213.292969 203.828125 L 212.972656 203.828125 L 212.972656 190.089844 L 233.769531 169.292969 L 263.308594 169.292969 L 271.019531 161.582031 L 273.144531 161.582031 C 273.460938 162.785156 274.550781 163.675781 275.855469 163.675781 C 277.40625 163.675781 278.660156 162.417969 278.660156 160.871094 C 278.660156 159.320312 277.40625 158.066406 275.855469 158.066406 C 274.503906 158.066406 273.378906 159.019531 273.113281 160.292969 " fill-opacity="1" fill-rule="nonzero"/></g><g clip-path="url(#b85873569a)"><path fill="#09105a" d="M 256.265625 175.871094 L 255.070312 175.871094 L 247.480469 183.460938 L 229.457031 183.460938 L 219 193.917969 L 219 203.828125 L 218.574219 203.828125 L 218.574219 208.011719 C 218.574219 208.585938 219.035156 209.046875 219.609375 209.046875 C 220.179688 209.046875 220.644531 208.585938 220.644531 208.011719 L 220.644531 203.828125 L 220.292969 203.828125 L 220.292969 194.453125 L 229.992188 184.753906 L 248.015625 184.753906 L 255.609375 177.160156 L 256.28125 177.160156 C 256.582031 178.386719 257.683594 179.292969 259 179.292969 C 260.550781 179.292969 261.804688 178.039062 261.804688 176.488281 C 261.804688 174.941406 260.550781 173.683594 259 173.683594 C 257.660156 173.683594 256.546875 174.617188 256.265625 175.871094 " fill-opacity="1" fill-rule="nonzero"/></g><g clip-path="url(#9a4b16e1cb)"><path fill="#09105a" d="M 222.691406 203.828125 L 222.214844 203.828125 L 222.214844 208.011719 C 222.214844 208.585938 222.679688 209.046875 223.25 209.046875 C 223.824219 209.046875 224.285156 208.585938 224.285156 208.011719 L 224.285156 203.828125 L 223.984375 203.828125 L 223.984375 196.25 L 231.691406 188.542969 L 244.648438 188.542969 L 244.648438 193.195312 C 243.347656 193.441406 242.363281 194.578125 242.363281 195.949219 C 242.363281 197.5 243.621094 198.753906 245.167969 198.753906 C 246.71875 198.753906 247.972656 197.5 247.972656 195.949219 C 247.972656 194.667969 247.113281 193.589844 245.9375 193.253906 L 245.9375 187.25 L 231.15625 187.25 L 222.691406 195.714844 L 222.691406 203.828125 " fill-opacity="1" fill-rule="nonzero"/></g><g clip-path="url(#98165b4834)"><path fill="#09105a" d="M 285.070312 132.332031 C 285.070312 132.855469 285.21875 133.347656 285.46875 133.765625 L 282.453125 136.78125 L 282.453125 146.933594 L 277.671875 151.714844 L 258.652344 151.714844 L 250.128906 160.238281 L 229.28125 160.238281 L 204.683594 184.835938 L 204.683594 203.828125 L 204.257812 203.828125 L 204.257812 208.011719 C 204.257812 208.585938 204.722656 209.046875 205.292969 209.046875 C 205.863281 209.046875 206.328125 208.585938 206.328125 208.011719 L 206.328125 203.828125 L 205.972656 203.828125 L 205.972656 185.371094 L 229.816406 161.527344 L 250.664062 161.527344 L 259.1875 153.003906 L 278.207031 153.003906 L 283.742188 147.46875 L 283.742188 137.316406 L 286.367188 134.691406 C 286.804688 134.972656 287.320312 135.136719 287.875 135.136719 C 289.425781 135.136719 290.683594 133.878906 290.683594 132.332031 C 290.683594 130.785156 289.425781 129.527344 287.875 129.527344 C 286.328125 129.527344 285.070312 130.785156 285.070312 132.332031 " fill-opacity="1" fill-rule="nonzero"/></g><path fill="#09105a" d="M 270.097656 100.199219 L 265.988281 100.199219 L 252.382812 113.800781 L 252.382812 119.449219 L 248.78125 123.050781 L 197.421875 123.050781 L 191.988281 128.484375 L 186.554688 123.050781 L 135.195312 123.050781 L 131.59375 119.449219 L 131.59375 113.800781 L 117.988281 100.199219 L 113.878906 100.199219 C 113.589844 98.960938 112.480469 98.035156 111.152344 98.035156 C 109.601562 98.035156 108.347656 99.292969 108.347656 100.84375 C 108.347656 102.390625 109.601562 103.648438 111.152344 103.648438 C 112.480469 103.648438 113.589844 102.726562 113.878906 101.488281 L 117.457031 101.488281 L 130.300781 114.335938 L 130.300781 119.984375 L 134.660156 124.339844 L 186.019531 124.339844 L 191.074219 129.398438 L 191.070312 129.402344 L 191.984375 130.316406 L 191.988281 130.3125 L 191.992188 130.316406 L 192.90625 129.402344 L 192.902344 129.398438 L 197.957031 124.339844 L 249.316406 124.339844 L 253.675781 119.984375 L 253.675781 114.335938 L 266.519531 101.488281 L 270.097656 101.488281 C 270.386719 102.726562 271.496094 103.648438 272.824219 103.648438 C 274.375 103.648438 275.628906 102.390625 275.628906 100.84375 C 275.628906 99.292969 274.375 98.035156 272.824219 98.035156 C 271.496094 98.035156 270.386719 98.960938 270.097656 100.199219 " fill-opacity="1" fill-rule="nonzero"/><g clip-path="url(#b9b17a528e)"><path fill="#09105a" d="M 183.90625 208.011719 L 183.90625 203.828125 L 183.53125 203.828125 L 183.53125 184.835938 L 183.339844 184.644531 L 155.945312 157.253906 L 135.964844 157.253906 L 124.386719 145.671875 L 113.300781 145.671875 C 113.089844 144.332031 111.933594 143.304688 110.535156 143.304688 C 108.984375 143.304688 107.730469 144.558594 107.730469 146.109375 C 107.730469 147.65625 108.984375 148.914062 110.535156 148.914062 C 111.785156 148.914062 112.839844 148.09375 113.203125 146.964844 L 123.851562 146.964844 L 135.429688 158.542969 L 155.414062 158.542969 L 182.238281 185.371094 L 182.238281 203.828125 L 181.835938 203.828125 L 181.835938 208.011719 C 181.835938 208.585938 182.296875 209.046875 182.871094 209.046875 C 183.441406 209.046875 183.90625 208.585938 183.90625 208.011719 " fill-opacity="1" fill-rule="nonzero"/></g><g clip-path="url(#1df3bcedff)"><path fill="#09105a" d="M 175.894531 208.011719 L 175.894531 203.828125 L 175.503906 203.828125 L 175.503906 187.757812 L 152.421875 164.671875 L 131.472656 164.671875 L 128.207031 161.40625 C 128.472656 160.972656 128.632812 160.464844 128.632812 159.917969 C 128.632812 158.371094 127.378906 157.113281 125.828125 157.113281 C 124.28125 157.113281 123.023438 158.371094 123.023438 159.917969 C 123.023438 161.46875 124.28125 162.722656 125.828125 162.722656 C 126.363281 162.722656 126.859375 162.570312 127.285156 162.3125 L 130.9375 165.964844 L 151.886719 165.964844 L 174.210938 188.289062 L 174.210938 203.828125 L 173.828125 203.828125 L 173.828125 208.011719 C 173.828125 208.585938 174.289062 209.046875 174.863281 209.046875 C 175.433594 209.046875 175.894531 208.585938 175.894531 208.011719 " fill-opacity="1" fill-rule="nonzero"/></g><g clip-path="url(#65d3055e7c)"><path fill="#09105a" d="M 169.054688 208.011719 L 169.054688 203.828125 L 168.667969 203.828125 L 168.667969 191.992188 L 153.21875 176.542969 L 143.097656 176.542969 C 142.824219 175.28125 141.703125 174.332031 140.355469 174.332031 C 138.808594 174.332031 137.550781 175.589844 137.550781 177.136719 C 137.550781 178.6875 138.808594 179.941406 140.355469 179.941406 C 141.664062 179.941406 142.757812 179.046875 143.070312 177.835938 L 152.683594 177.835938 L 167.378906 192.527344 L 167.378906 203.828125 L 166.980469 203.828125 L 166.980469 208.011719 C 166.980469 208.585938 167.445312 209.046875 168.019531 209.046875 C 168.589844 209.046875 169.054688 208.585938 169.054688 208.011719 " fill-opacity="1" fill-rule="nonzero"/></g><path fill="#09105a" d="M 191.527344 115.988281 L 143.839844 115.988281 C 143.546875 114.75 142.4375 113.828125 141.113281 113.828125 C 139.5625 113.828125 138.308594 115.085938 138.308594 116.636719 C 138.308594 118.183594 139.5625 119.441406 141.113281 119.441406 C 142.4375 119.441406 143.546875 118.519531 143.839844 117.28125 L 240.136719 117.28125 C 240.429688 118.519531 241.539062 119.441406 242.863281 119.441406 C 244.414062 119.441406 245.667969 118.183594 245.667969 116.636719 C 245.667969 115.085938 244.414062 113.828125 242.863281 113.828125 C 241.539062 113.828125 240.429688 114.75 240.136719 115.988281 L 191.527344 115.988281 " fill-opacity="1" fill-rule="nonzero"/><g clip-path="url(#bd58b46f78)"><path fill="#09105a" d="M 172.710938 208.011719 L 172.710938 203.828125 L 172.296875 203.828125 L 172.296875 189.554688 L 150.742188 168 L 121.199219 168 L 113.492188 160.292969 L 110.863281 160.292969 C 110.597656 159.019531 109.472656 158.066406 108.121094 158.066406 C 106.570312 158.066406 105.316406 159.320312 105.316406 160.871094 C 105.316406 162.417969 106.570312 163.675781 108.121094 163.675781 C 109.425781 163.675781 110.515625 162.785156 110.832031 161.582031 L 112.957031 161.582031 L 120.667969 169.292969 L 150.207031 169.292969 L 171.003906 190.089844 L 171.003906 203.828125 L 170.636719 203.828125 L 170.636719 208.011719 C 170.636719 208.585938 171.101562 209.046875 171.671875 209.046875 C 172.246094 209.046875 172.710938 208.585938 172.710938 208.011719 " fill-opacity="1" fill-rule="nonzero"/></g><g clip-path="url(#f32f82eb2b)"><path fill="#09105a" d="M 165.359375 208.011719 L 165.359375 203.828125 L 164.976562 203.828125 L 164.976562 193.917969 L 154.519531 183.460938 L 136.496094 183.460938 L 128.902344 175.871094 L 127.710938 175.871094 C 127.429688 174.617188 126.316406 173.683594 124.976562 173.683594 C 123.425781 173.683594 122.171875 174.941406 122.171875 176.488281 C 122.171875 178.039062 123.425781 179.292969 124.976562 179.292969 C 126.292969 179.292969 127.394531 178.386719 127.695312 177.160156 L 128.367188 177.160156 L 135.960938 184.753906 L 153.984375 184.753906 L 163.683594 194.453125 L 163.683594 203.828125 L 163.285156 203.828125 L 163.285156 208.011719 C 163.285156 208.585938 163.75 209.046875 164.320312 209.046875 C 164.894531 209.046875 165.359375 208.585938 165.359375 208.011719 " fill-opacity="1" fill-rule="nonzero"/></g><g clip-path="url(#8372a06639)"><path fill="#09105a" d="M 161.71875 208.011719 L 161.71875 203.828125 L 161.285156 203.828125 L 161.285156 195.714844 L 152.820312 187.25 L 138.035156 187.25 L 138.035156 193.253906 C 136.863281 193.589844 136.003906 194.667969 136.003906 195.949219 C 136.003906 197.5 137.257812 198.753906 138.808594 198.753906 C 140.355469 198.753906 141.613281 197.5 141.613281 195.949219 C 141.613281 194.578125 140.628906 193.441406 139.328125 193.195312 L 139.328125 188.542969 L 152.28125 188.542969 L 159.992188 196.25 L 159.992188 203.828125 L 159.644531 203.828125 L 159.644531 208.011719 C 159.644531 208.585938 160.109375 209.046875 160.679688 209.046875 C 161.253906 209.046875 161.71875 208.585938 161.71875 208.011719 " fill-opacity="1" fill-rule="nonzero"/></g><g clip-path="url(#c241539c56)"><path fill="#09105a" d="M 179.675781 208.011719 L 179.675781 203.828125 L 179.292969 203.828125 L 179.292969 184.835938 L 154.695312 160.238281 L 133.847656 160.238281 L 125.324219 151.714844 L 106.304688 151.714844 L 101.523438 146.933594 L 101.523438 136.78125 L 98.507812 133.765625 C 98.757812 133.347656 98.90625 132.855469 98.90625 132.332031 C 98.90625 130.785156 97.648438 129.527344 96.101562 129.527344 C 94.550781 129.527344 93.292969 130.785156 93.292969 132.332031 C 93.292969 133.878906 94.550781 135.136719 96.101562 135.136719 C 96.660156 135.136719 97.171875 134.972656 97.609375 134.691406 L 100.234375 137.316406 L 100.234375 147.46875 L 105.769531 153.003906 L 124.789062 153.003906 L 133.3125 161.527344 L 154.160156 161.527344 L 178 185.371094 L 178 203.828125 L 177.605469 203.828125 L 177.605469 208.011719 C 177.605469 208.585938 178.066406 209.046875 178.640625 209.046875 C 179.214844 209.046875 179.675781 208.585938 179.675781 208.011719 " fill-opacity="1" fill-rule="nonzero"/></g><g clip-path="url(#491e40642d)"><path fill="#09105a" d="M 285.640625 102.816406 C 285.640625 103.339844 285.785156 103.828125 286.039062 104.246094 L 280.972656 109.308594 L 269.707031 109.308594 L 251.605469 127.410156 L 231.839844 127.410156 L 191.988281 167.261719 L 152.136719 127.410156 L 132.371094 127.410156 L 114.269531 109.308594 L 103.003906 109.308594 L 97.9375 104.246094 C 98.1875 103.828125 98.335938 103.339844 98.335938 102.816406 C 98.335938 101.265625 97.078125 100.011719 95.53125 100.011719 C 93.980469 100.011719 92.722656 101.265625 92.722656 102.816406 C 92.722656 104.367188 93.980469 105.621094 95.53125 105.621094 C 96.089844 105.621094 96.605469 105.457031 97.042969 105.175781 L 102.46875 110.601562 L 113.734375 110.601562 L 131.835938 128.703125 L 151.601562 128.703125 L 191.074219 168.175781 L 191.070312 168.179688 L 191.984375 169.09375 L 191.988281 169.085938 L 191.992188 169.09375 L 192.90625 168.179688 L 192.902344 168.175781 L 232.375 128.703125 L 252.140625 128.703125 L 270.242188 110.601562 L 281.507812 110.601562 L 286.933594 105.175781 C 287.371094 105.457031 287.886719 105.621094 288.445312 105.621094 C 289.996094 105.621094 291.253906 104.367188 291.253906 102.816406 C 291.253906 101.265625 289.996094 100.011719 288.445312 100.011719 C 286.898438 100.011719 285.640625 101.265625 285.640625 102.816406 " fill-opacity="1" fill-rule="nonzero"/></g><path fill="#09105a" d="M 197.136719 136.402344 L 187.761719 136.402344 L 183.074219 144.519531 L 187.761719 152.640625 L 197.136719 152.640625 L 201.824219 144.519531 L 197.136719 136.402344 " fill-opacity="1" fill-rule="nonzero"/><path fill="#09105a" d="M 186.921875 154.09375 L 181.394531 144.519531 L 186.921875 134.945312 L 197.976562 134.945312 L 203.503906 144.519531 L 197.976562 154.09375 Z M 198.847656 155.597656 L 205.246094 144.519531 L 198.847656 133.441406 L 186.054688 133.441406 L 179.65625 144.519531 L 186.054688 155.597656 L 198.847656 155.597656 " fill-opacity="1" fill-rule="nonzero"/><path fill="#ffffff" d="M 16.96875 163.402344 L 367.03125 163.402344 L 367.03125 240.882812 L 16.96875 240.882812 L 16.96875 163.402344 " fill-opacity="1" fill-rule="nonzero"/><g fill="#09105a" fill-opacity="1"><g transform="translate(17.052563, 222.008414)"><g><path d="M 16.84375 -43.453125 C 19.4375 -43.453125 20.847656 -42.867188 21.078125 -41.703125 L 24.921875 -24.34375 L 28.8125 -1.25 C 28.882812 -0.863281 28.921875 -0.507812 28.921875 -0.1875 C 28.921875 0.125 28.828125 0.382812 28.640625 0.59375 C 28.453125 0.800781 27.8125 0.90625 26.71875 0.90625 C 23.375 0.90625 21.585938 0.1875 21.359375 -1.25 L 19.375 -12.875 L 11.46875 -12.875 L 9.71875 -1.1875 C 9.601562 -0.394531 9.460938 0.128906 9.296875 0.390625 C 9.128906 0.660156 8.894531 0.8125 8.59375 0.84375 C 8.289062 0.882812 7.800781 0.90625 7.125 0.90625 L 5.53125 0.90625 C 4.21875 0.90625 3.390625 0.828125 3.046875 0.671875 C 2.222656 0.367188 1.753906 0.03125 1.640625 -0.34375 C 1.597656 -0.53125 1.578125 -0.695312 1.578125 -0.84375 C 1.578125 -1 1.972656 -3.484375 2.765625 -8.296875 C 3.554688 -13.117188 4.523438 -18.863281 5.671875 -25.53125 C 6.828125 -32.195312 7.582031 -36.566406 7.9375 -38.640625 C 8.289062 -40.710938 8.488281 -41.882812 8.53125 -42.15625 C 8.675781 -43.019531 11.445312 -43.453125 16.84375 -43.453125 Z M 15.140625 -36.046875 L 12.546875 -19.71875 L 18.140625 -19.71875 Z M 15.140625 -36.046875 "/></g></g></g><g fill="#09105a" fill-opacity="1"><g transform="translate(47.674005, 222.008414)"><g><path d="M 9.046875 0.90625 C 6.253906 0.90625 4.207031 -0.234375 2.90625 -2.515625 C 1.601562 -4.796875 0.953125 -8.757812 0.953125 -14.40625 C 0.953125 -20.050781 1.769531 -23.878906 3.40625 -25.890625 C 5.050781 -27.910156 8.15625 -28.921875 12.71875 -28.921875 L 15.421875 -28.921875 L 15.421875 -42.484375 C 15.421875 -43.085938 16.078125 -43.390625 17.390625 -43.390625 C 18.710938 -43.390625 19.804688 -43.304688 20.671875 -43.140625 C 21.546875 -42.972656 22 -42.753906 22.03125 -42.484375 L 23 -24.46875 L 23 0 C 23 0.226562 22.976562 0.378906 22.9375 0.453125 C 22.75 0.753906 22.050781 0.90625 20.84375 0.90625 C 19.644531 0.90625 18.617188 0.816406 17.765625 0.640625 C 16.921875 0.472656 16.5 0.257812 16.5 0 L 15.421875 -1.75 C 14.328125 -1.03125 13.554688 -0.519531 13.109375 -0.21875 C 11.867188 0.53125 10.515625 0.90625 9.046875 0.90625 Z M 12.71875 -23.5 C 11.320312 -23.5 10.367188 -22.925781 9.859375 -21.78125 C 9.347656 -20.632812 9.09375 -18.691406 9.09375 -15.953125 C 9.09375 -13.222656 9.101562 -11.425781 9.125 -10.5625 C 9.144531 -9.695312 9.171875 -8.703125 9.203125 -7.578125 C 9.285156 -5.535156 9.550781 -4.515625 10 -4.515625 C 11.351562 -4.515625 13.160156 -5.191406 15.421875 -6.546875 L 15.421875 -23.5 Z M 12.71875 -23.5 "/></g></g></g><g fill="#09105a" fill-opacity="1"><g transform="translate(73.323703, 222.008414)"><g><path d="M 31.46875 0 L 31.46875 -17.171875 C 31.46875 -21.390625 31.164062 -23.5 30.5625 -23.5 C 29.25 -23.5 27.347656 -22.765625 24.859375 -21.296875 C 25.046875 -19.898438 25.140625 -18.523438 25.140625 -17.171875 L 25.140625 0 C 25.140625 0.226562 25.125 0.378906 25.09375 0.453125 C 24.894531 0.753906 24.164062 0.90625 22.90625 0.90625 C 21.644531 0.90625 20.34375 0.8125 19 0.625 C 17.664062 0.4375 17 0.226562 17 0 L 17 -19.265625 C 16.925781 -22.085938 16.628906 -23.5 16.109375 -23.5 C 14.742188 -23.5 12.929688 -22.820312 10.671875 -21.46875 L 10.671875 0 C 10.671875 0.226562 10.65625 0.378906 10.625 0.453125 C 10.4375 0.753906 9.707031 0.90625 8.4375 0.90625 C 7.175781 0.90625 5.878906 0.8125 4.546875 0.625 C 3.210938 0.4375 2.546875 0.226562 2.546875 0 L 2.546875 -28.03125 C 2.546875 -28.625 3.296875 -28.921875 4.796875 -28.921875 C 7.171875 -28.921875 8.53125 -28.625 8.875 -28.03125 C 8.875 -27.945312 8.890625 -27.90625 8.921875 -27.90625 L 10 -25.765625 C 13.164062 -27.867188 15.519531 -28.921875 17.0625 -28.921875 C 20.375 -28.921875 22.613281 -27.71875 23.78125 -25.3125 C 27.25 -27.71875 29.832031 -28.921875 31.53125 -28.921875 C 34.3125 -28.921875 36.351562 -28.054688 37.65625 -26.328125 C 38.957031 -24.597656 39.609375 -21.546875 39.609375 -17.171875 L 39.609375 0 C 39.609375 0.226562 39.585938 0.378906 39.546875 0.453125 C 39.359375 0.753906 38.632812 0.90625 37.375 0.90625 C 36.113281 0.90625 34.8125 0.8125 33.46875 0.625 C 32.132812 0.4375 31.46875 0.226562 31.46875 0 Z M 31.46875 0 "/></g></g></g><g fill="#09105a" fill-opacity="1"><g transform="translate(115.583534, 222.008414)"><g><path d="M 2.65625 0 L 2.65625 -28.03125 C 2.65625 -28.625 3.332031 -28.921875 4.6875 -28.921875 C 6.039062 -28.921875 7.320312 -28.828125 8.53125 -28.640625 C 9.738281 -28.453125 10.34375 -28.25 10.34375 -28.03125 L 10.34375 0 C 10.34375 0.226562 10.320312 0.378906 10.28125 0.453125 C 10.09375 0.753906 9.375 0.90625 8.125 0.90625 C 6.882812 0.90625 5.660156 0.8125 4.453125 0.625 C 3.253906 0.4375 2.65625 0.226562 2.65625 0 Z M 6.15625 -35.25 C 3.445312 -35.25 2.09375 -36.601562 2.09375 -39.3125 C 2.09375 -42.03125 3.445312 -43.390625 6.15625 -43.390625 C 8.863281 -43.390625 10.21875 -42.03125 10.21875 -39.3125 C 10.21875 -36.601562 8.863281 -35.25 6.15625 -35.25 Z M 6.15625 -35.25 "/></g></g></g><g fill="#09105a" fill-opacity="1"><g transform="translate(128.577903, 222.008414)"><g><path d="M 17.0625 -28.921875 C 19.851562 -28.921875 21.894531 -28.054688 23.1875 -26.328125 C 24.488281 -24.597656 25.140625 -21.546875 25.140625 -17.171875 L 25.140625 0 C 25.140625 0.226562 25.125 0.378906 25.09375 0.453125 C 24.894531 0.753906 24.164062 0.90625 22.90625 0.90625 C 21.644531 0.90625 20.351562 0.8125 19.03125 0.625 C 17.71875 0.4375 17.0625 0.226562 17.0625 0 L 17 -17.171875 C 17 -21.390625 16.703125 -23.5 16.109375 -23.5 C 14.742188 -23.5 12.929688 -22.820312 10.671875 -21.46875 L 10.671875 0 C 10.671875 0.226562 10.65625 0.378906 10.625 0.453125 C 10.4375 0.753906 9.707031 0.90625 8.4375 0.90625 C 7.175781 0.90625 5.878906 0.8125 4.546875 0.625 C 3.210938 0.4375 2.546875 0.226562 2.546875 0 L 2.546875 -28.03125 C 2.546875 -28.625 3.296875 -28.921875 4.796875 -28.921875 C 7.171875 -28.921875 8.53125 -28.625 8.875 -28.03125 C 8.875 -27.945312 8.890625 -27.90625 8.921875 -27.90625 L 10 -25.765625 C 13.164062 -27.867188 15.519531 -28.921875 17.0625 -28.921875 Z M 17.0625 -28.921875 "/></g></g></g><g fill="#09105a" fill-opacity="1"><g transform="translate(156.317986, 222.008414)"><g/></g></g><g fill="#09105a" fill-opacity="1"><g transform="translate(171.515739, 222.008414)"><g><path d="M 16.84375 0.90625 C 11.226562 0.90625 7.351562 -0.675781 5.21875 -3.84375 C 3.09375 -7.007812 2.03125 -12.71875 2.03125 -20.96875 C 2.03125 -26.945312 2.5 -31.535156 3.4375 -34.734375 C 4.382812 -37.941406 5.882812 -40.1875 7.9375 -41.46875 C 9.988281 -42.75 12.894531 -43.390625 16.65625 -43.390625 C 20.425781 -43.390625 23.332031 -42.878906 25.375 -41.859375 C 26.195312 -41.453125 26.609375 -40.890625 26.609375 -40.171875 C 26.609375 -39.941406 26.425781 -39.300781 26.0625 -38.25 C 25.707031 -37.195312 25.367188 -36.476562 25.046875 -36.09375 C 24.734375 -35.71875 24.390625 -35.53125 24.015625 -35.53125 C 23.640625 -35.53125 22.59375 -35.679688 20.875 -35.984375 C 19.164062 -36.285156 17.707031 -36.4375 16.5 -36.4375 C 15.289062 -36.4375 14.421875 -36.320312 13.890625 -36.09375 C 13.367188 -35.875 12.9375 -35.453125 12.59375 -34.828125 C 12.257812 -34.210938 11.988281 -33.554688 11.78125 -32.859375 C 11.570312 -32.160156 11.410156 -31.148438 11.296875 -29.828125 C 11.148438 -28.054688 11.078125 -24.5625 11.078125 -19.34375 C 11.078125 -14.132812 11.382812 -10.625 12 -8.8125 C 12.625 -7.007812 14.066406 -6.109375 16.328125 -6.109375 L 20.96875 -6.390625 L 20.96875 -18.703125 C 21 -19.453125 21.25 -19.945312 21.71875 -20.1875 C 22.195312 -20.4375 23.035156 -20.570312 24.234375 -20.59375 C 25.441406 -20.613281 26.347656 -20.460938 26.953125 -20.140625 C 27.554688 -19.816406 27.894531 -19.164062 27.96875 -18.1875 L 28.921875 -7.125 L 28.921875 0 C 24.140625 0.601562 20.113281 0.90625 16.84375 0.90625 Z M 16.84375 0.90625 "/></g></g></g><g fill="#09105a" fill-opacity="1"><g transform="translate(202.58916, 222.008414)"><g><path d="M 10.453125 0.90625 C 7.660156 0.90625 5.613281 0.0390625 4.3125 -1.6875 C 3.019531 -3.425781 2.375 -6.476562 2.375 -10.84375 L 2.375 -28.03125 C 2.375 -28.625 3.0625 -28.921875 4.4375 -28.921875 C 5.8125 -28.921875 7.15625 -28.828125 8.46875 -28.640625 C 9.789062 -28.453125 10.453125 -28.25 10.453125 -28.03125 L 10.515625 -10.84375 C 10.515625 -6.625 10.8125 -4.515625 11.40625 -4.515625 C 12.769531 -4.515625 14.582031 -5.191406 16.84375 -6.546875 L 16.84375 -28.03125 C 16.84375 -28.625 17.53125 -28.921875 18.90625 -28.921875 C 20.28125 -28.921875 21.632812 -28.828125 22.96875 -28.640625 C 24.300781 -28.453125 24.96875 -28.25 24.96875 -28.03125 L 24.96875 0 C 24.96875 0.226562 24.929688 0.378906 24.859375 0.453125 C 24.710938 0.753906 23.742188 0.90625 21.953125 0.90625 C 20.160156 0.90625 19.054688 0.601562 18.640625 0 L 17.453125 -1.75 C 14.816406 0.0195312 12.484375 0.90625 10.453125 0.90625 Z M 10.453125 0.90625 "/></g></g></g><g fill="#09105a" fill-opacity="1"><g transform="translate(230.272752, 222.008414)"><g><path d="M 15.484375 -1.75 C 13.523438 0.0195312 11.78125 0.90625 10.25 0.90625 C 8.726562 0.90625 7.492188 0.800781 6.546875 0.59375 C 5.609375 0.382812 4.757812 -0.0664062 4 -0.765625 C 3.25 -1.460938 2.722656 -2.46875 2.421875 -3.78125 C 2.128906 -5.101562 1.984375 -6.859375 1.984375 -9.046875 C 1.984375 -12.085938 3.46875 -14.175781 6.4375 -15.3125 L 14.515625 -17.40625 C 14.484375 -19.851562 14.238281 -21.429688 13.78125 -22.140625 C 13.332031 -22.859375 12.351562 -23.21875 10.84375 -23.21875 C 9.34375 -23.21875 8.046875 -22.972656 6.953125 -22.484375 L 4.96875 -21.703125 L 4.921875 -21.703125 C 4.578125 -21.503906 4.273438 -21.648438 4.015625 -22.140625 C 3.335938 -23.578125 3 -24.695312 3 -25.5 C 3 -26.3125 3.0625 -26.765625 3.1875 -26.859375 C 3.320312 -26.953125 3.390625 -27.019531 3.390625 -27.0625 C 5.273438 -28.300781 7.710938 -28.921875 10.703125 -28.921875 C 13.703125 -28.921875 16.007812 -28.523438 17.625 -27.734375 C 19.25 -26.953125 20.425781 -25.515625 21.15625 -23.421875 C 21.894531 -21.328125 22.265625 -18.226562 22.265625 -14.125 L 22.140625 0 C 22.140625 0.226562 22.101562 0.378906 22.03125 0.453125 C 21.882812 0.753906 21.171875 0.90625 19.890625 0.90625 C 17.554688 0.90625 16.390625 0.601562 16.390625 0 Z M 8.25 -8.921875 C 8.25 -6.210938 9.039062 -4.785156 10.625 -4.640625 C 11.71875 -4.640625 12.507812 -4.828125 13 -5.203125 C 14.050781 -5.910156 14.578125 -8.582031 14.578125 -13.21875 C 12.617188 -12.957031 11.070312 -12.421875 9.9375 -11.609375 C 8.8125 -10.796875 8.25 -9.898438 8.25 -8.921875 Z M 8.25 -8.921875 "/></g></g></g><g fill="#09105a" fill-opacity="1"><g transform="translate(255.018492, 222.008414)"><g><path d="M 9.15625 -25.765625 C 12.238281 -27.867188 14.28125 -28.921875 15.28125 -28.921875 C 16.28125 -28.921875 17.179688 -28.734375 17.984375 -28.359375 C 18.796875 -27.984375 19.394531 -27.609375 19.78125 -27.234375 L 20.28125 -26.71875 C 19.71875 -24.3125 19.285156 -22.804688 18.984375 -22.203125 C 18.679688 -21.597656 18.273438 -21.296875 17.765625 -21.296875 C 17.253906 -21.296875 16.601562 -21.503906 15.8125 -21.921875 C 15.03125 -22.335938 14.316406 -22.546875 13.671875 -22.546875 C 13.035156 -22.546875 11.753906 -21.960938 9.828125 -20.796875 L 9.828125 0 C 9.828125 0.226562 9.789062 0.378906 9.71875 0.453125 C 9.5625 0.753906 8.863281 0.90625 7.625 0.90625 C 6.382812 0.90625 5.226562 0.8125 4.15625 0.625 C 3.082031 0.4375 2.546875 0.226562 2.546875 0 L 2.546875 -28.03125 C 2.546875 -28.625 3.390625 -28.921875 5.078125 -28.921875 C 6.773438 -28.921875 7.753906 -28.625 8.015625 -28.03125 L 8.015625 -27.90625 Z M 9.15625 -25.765625 "/></g></g></g><g fill="#09105a" fill-opacity="1"><g transform="translate(275.978933, 222.008414)"><g><path d="M 9.046875 0.90625 C 6.253906 0.90625 4.207031 -0.234375 2.90625 -2.515625 C 1.601562 -4.796875 0.953125 -8.757812 0.953125 -14.40625 C 0.953125 -20.050781 1.769531 -23.878906 3.40625 -25.890625 C 5.050781 -27.910156 8.15625 -28.921875 12.71875 -28.921875 L 15.421875 -28.921875 L 15.421875 -42.484375 C 15.421875 -43.085938 16.078125 -43.390625 17.390625 -43.390625 C 18.710938 -43.390625 19.804688 -43.304688 20.671875 -43.140625 C 21.546875 -42.972656 22 -42.753906 22.03125 -42.484375 L 23 -24.46875 L 23 0 C 23 0.226562 22.976562 0.378906 22.9375 0.453125 C 22.75 0.753906 22.050781 0.90625 20.84375 0.90625 C 19.644531 0.90625 18.617188 0.816406 17.765625 0.640625 C 16.921875 0.472656 16.5 0.257812 16.5 0 L 15.421875 -1.75 C 14.328125 -1.03125 13.554688 -0.519531 13.109375 -0.21875 C 11.867188 0.53125 10.515625 0.90625 9.046875 0.90625 Z M 12.71875 -23.5 C 11.320312 -23.5 10.367188 -22.925781 9.859375 -21.78125 C 9.347656 -20.632812 9.09375 -18.691406 9.09375 -15.953125 C 9.09375 -13.222656 9.101562 -11.425781 9.125 -10.5625 C 9.144531 -9.695312 9.171875 -8.703125 9.203125 -7.578125 C 9.285156 -5.535156 9.550781 -4.515625 10 -4.515625 C 11.351562 -4.515625 13.160156 -5.191406 15.421875 -6.546875 L 15.421875 -23.5 Z M 12.71875 -23.5 "/></g></g></g><g fill="#09105a" fill-opacity="1"><g transform="translate(301.62863, 222.008414)"><g><path d="M 2.65625 0 L 2.65625 -28.03125 C 2.65625 -28.625 3.332031 -28.921875 4.6875 -28.921875 C 6.039062 -28.921875 7.320312 -28.828125 8.53125 -28.640625 C 9.738281 -28.453125 10.34375 -28.25 10.34375 -28.03125 L 10.34375 0 C 10.34375 0.226562 10.320312 0.378906 10.28125 0.453125 C 10.09375 0.753906 9.375 0.90625 8.125 0.90625 C 6.882812 0.90625 5.660156 0.8125 4.453125 0.625 C 3.253906 0.4375 2.65625 0.226562 2.65625 0 Z M 6.15625 -35.25 C 3.445312 -35.25 2.09375 -36.601562 2.09375 -39.3125 C 2.09375 -42.03125 3.445312 -43.390625 6.15625 -43.390625 C 8.863281 -43.390625 10.21875 -42.03125 10.21875 -39.3125 C 10.21875 -36.601562 8.863281 -35.25 6.15625 -35.25 Z M 6.15625 -35.25 "/></g></g></g><g fill="#09105a" fill-opacity="1"><g transform="translate(314.622999, 222.008414)"><g><path d="M 15.484375 -1.75 C 13.523438 0.0195312 11.78125 0.90625 10.25 0.90625 C 8.726562 0.90625 7.492188 0.800781 6.546875 0.59375 C 5.609375 0.382812 4.757812 -0.0664062 4 -0.765625 C 3.25 -1.460938 2.722656 -2.46875 2.421875 -3.78125 C 2.128906 -5.101562 1.984375 -6.859375 1.984375 -9.046875 C 1.984375 -12.085938 3.46875 -14.175781 6.4375 -15.3125 L 14.515625 -17.40625 C 14.484375 -19.851562 14.238281 -21.429688 13.78125 -22.140625 C 13.332031 -22.859375 12.351562 -23.21875 10.84375 -23.21875 C 9.34375 -23.21875 8.046875 -22.972656 6.953125 -22.484375 L 4.96875 -21.703125 L 4.921875 -21.703125 C 4.578125 -21.503906 4.273438 -21.648438 4.015625 -22.140625 C 3.335938 -23.578125 3 -24.695312 3 -25.5 C 3 -26.3125 3.0625 -26.765625 3.1875 -26.859375 C 3.320312 -26.953125 3.390625 -27.019531 3.390625 -27.0625 C 5.273438 -28.300781 7.710938 -28.921875 10.703125 -28.921875 C 13.703125 -28.921875 16.007812 -28.523438 17.625 -27.734375 C 19.25 -26.953125 20.425781 -25.515625 21.15625 -23.421875 C 21.894531 -21.328125 22.265625 -18.226562 22.265625 -14.125 L 22.140625 0 C 22.140625 0.226562 22.101562 0.378906 22.03125 0.453125 C 21.882812 0.753906 21.171875 0.90625 19.890625 0.90625 C 17.554688 0.90625 16.390625 0.601562 16.390625 0 Z M 8.25 -8.921875 C 8.25 -6.210938 9.039062 -4.785156 10.625 -4.640625 C 11.71875 -4.640625 12.507812 -4.828125 13 -5.203125 C 14.050781 -5.910156 14.578125 -8.582031 14.578125 -13.21875 C 12.617188 -12.957031 11.070312 -12.421875 9.9375 -11.609375 C 8.8125 -10.796875 8.25 -9.898438 8.25 -8.921875 Z M 8.25 -8.921875 "/></g></g></g><g fill="#09105a" fill-opacity="1"><g transform="translate(339.368739, 222.008414)"><g><path d="M 17.0625 -28.921875 C 19.851562 -28.921875 21.894531 -28.054688 23.1875 -26.328125 C 24.488281 -24.597656 25.140625 -21.546875 25.140625 -17.171875 L 25.140625 0 C 25.140625 0.226562 25.125 0.378906 25.09375 0.453125 C 24.894531 0.753906 24.164062 0.90625 22.90625 0.90625 C 21.644531 0.90625 20.351562 0.8125 19.03125 0.625 C 17.71875 0.4375 17.0625 0.226562 17.0625 0 L 17 -17.171875 C 17 -21.390625 16.703125 -23.5 16.109375 -23.5 C 14.742188 -23.5 12.929688 -22.820312 10.671875 -21.46875 L 10.671875 0 C 10.671875 0.226562 10.65625 0.378906 10.625 0.453125 C 10.4375 0.753906 9.707031 0.90625 8.4375 0.90625 C 7.175781 0.90625 5.878906 0.8125 4.546875 0.625 C 3.210938 0.4375 2.546875 0.226562 2.546875 0 L 2.546875 -28.03125 C 2.546875 -28.625 3.296875 -28.921875 4.796875 -28.921875 C 7.171875 -28.921875 8.53125 -28.625 8.875 -28.03125 C 8.875 -27.945312 8.890625 -27.90625 8.921875 -27.90625 L 10 -25.765625 C 13.164062 -27.867188 15.519531 -28.921875 17.0625 -28.921875 Z M 17.0625 -28.921875 "/></g></g></g><g fill="#09105a" fill-opacity="1"><g transform="translate(135.723791, 284.991002)"><g><path d="M 18.328125 -36.671875 C 21.429688 -36.671875 24.023438 -36.148438 26.109375 -35.109375 C 28.191406 -34.078125 29.742188 -32.640625 30.765625 -30.796875 C 31.785156 -28.960938 32.296875 -26.835938 32.296875 -24.421875 C 32.296875 -22.171875 31.804688 -20.082031 30.828125 -18.15625 C 29.859375 -16.226562 28.445312 -14.679688 26.59375 -13.515625 C 24.75 -12.359375 22.570312 -11.78125 20.0625 -11.78125 L 12.203125 -11.78125 L 12.203125 0 L 3.484375 0 L 3.484375 -36.671875 Z M 18.265625 -19.640625 C 19.765625 -19.640625 21.023438 -20.046875 22.046875 -20.859375 C 23.066406 -21.679688 23.578125 -22.796875 23.578125 -24.203125 C 23.578125 -25.753906 23.082031 -26.90625 22.09375 -27.65625 C 21.113281 -28.40625 19.835938 -28.78125 18.265625 -28.78125 L 12.203125 -28.78125 L 12.203125 -19.640625 Z M 18.265625 -19.640625 "/></g></g></g><g fill="#09105a" fill-opacity="1"><g transform="translate(169.744095, 284.991002)"><g><path d="M 12.203125 -11.78125 L 12.203125 0 L 3.484375 0 L 3.484375 -36.671875 L 18.328125 -36.671875 C 21.429688 -36.671875 24.023438 -36.148438 26.109375 -35.109375 C 28.191406 -34.078125 29.742188 -32.640625 30.765625 -30.796875 C 31.785156 -28.960938 32.296875 -26.835938 32.296875 -24.421875 C 32.296875 -21.765625 31.632812 -19.363281 30.3125 -17.21875 C 28.988281 -15.070312 27.140625 -13.53125 24.765625 -12.59375 L 34.03125 0 L 24 0 L 15.828125 -11.78125 Z M 18.265625 -19.640625 C 19.765625 -19.640625 21.023438 -20.046875 22.046875 -20.859375 C 23.066406 -21.679688 23.578125 -22.796875 23.578125 -24.203125 C 23.578125 -25.753906 23.082031 -26.90625 22.09375 -27.65625 C 21.113281 -28.40625 19.835938 -28.78125 18.265625 -28.78125 L 12.203125 -28.78125 L 12.203125 -19.640625 Z M 18.265625 -19.640625 "/></g></g></g><g fill="#09105a" fill-opacity="1"><g transform="translate(205.523452, 284.991002)"><g><path d="M 21.390625 -37.515625 C 24.960938 -37.515625 28.25 -36.648438 31.25 -34.921875 C 34.25 -33.203125 36.628906 -30.875 38.390625 -27.9375 C 40.148438 -25.007812 41.03125 -21.804688 41.03125 -18.328125 C 41.03125 -14.859375 40.148438 -11.648438 38.390625 -8.703125 C 36.628906 -5.765625 34.238281 -3.429688 31.21875 -1.703125 C 28.207031 0.015625 24.929688 0.875 21.390625 0.875 C 17.828125 0.875 14.539062 0.015625 11.53125 -1.703125 C 8.53125 -3.429688 6.148438 -5.765625 4.390625 -8.703125 C 2.640625 -11.648438 1.765625 -14.859375 1.765625 -18.328125 C 1.765625 -21.804688 2.640625 -25.007812 4.390625 -27.9375 C 6.148438 -30.875 8.53125 -33.203125 11.53125 -34.921875 C 14.539062 -36.648438 17.828125 -37.515625 21.390625 -37.515625 Z M 21.390625 -6.96875 C 23.359375 -6.96875 25.175781 -7.476562 26.84375 -8.5 C 28.507812 -9.519531 29.832031 -10.898438 30.8125 -12.640625 C 31.800781 -14.390625 32.296875 -16.285156 32.296875 -18.328125 C 32.296875 -20.367188 31.800781 -22.257812 30.8125 -24 C 29.832031 -25.738281 28.507812 -27.113281 26.84375 -28.125 C 25.175781 -29.144531 23.359375 -29.65625 21.390625 -29.65625 C 19.421875 -29.65625 17.597656 -29.144531 15.921875 -28.125 C 14.242188 -27.113281 12.914062 -25.742188 11.9375 -24.015625 C 10.96875 -22.285156 10.484375 -20.390625 10.484375 -18.328125 C 10.484375 -16.265625 10.96875 -14.363281 11.9375 -12.625 C 12.914062 -10.894531 14.242188 -9.519531 15.921875 -8.5 C 17.597656 -7.476562 19.421875 -6.96875 21.390625 -6.96875 Z M 21.390625 -6.96875 "/></g></g></g></svg>