<svg xmlns="http://www.w3.org/2000/svg" xmlns:xlink="http://www.w3.org/1999/xlink" width="192" zoomAndPan="magnify" viewBox="0 0 144 143.999998" height="192" preserveAspectRatio="xMidYMid meet" version="1.0"><defs><g/><clipPath id="da85bd40a0"><path d="M 9.359375 0 L 134.609375 0 L 134.609375 144 L 9.359375 144 Z M 9.359375 0 " clip-rule="nonzero"/></clipPath><clipPath id="1462a2bc5f"><path d="M 75 53 L 104 53 L 104 78.394531 L 75 78.394531 Z M 75 53 " clip-rule="nonzero"/></clipPath><clipPath id="e6b47fd1fd"><path d="M 78 58 L 98 58 L 98 78.394531 L 78 78.394531 Z M 78 58 " clip-rule="nonzero"/></clipPath><clipPath id="caa7c2a003"><path d="M 80 65 L 93 65 L 93 78.394531 L 80 78.394531 Z M 80 65 " clip-rule="nonzero"/></clipPath><clipPath id="099d1a822c"><path d="M 79 59 L 105 59 L 105 78.394531 L 79 78.394531 Z M 79 59 " clip-rule="nonzero"/></clipPath><clipPath id="0abe7b2dbe"><path d="M 81 65 L 99 65 L 99 78.394531 L 81 78.394531 Z M 81 65 " clip-rule="nonzero"/></clipPath><clipPath id="202f199df7"><path d="M 83 70 L 93 70 L 93 78.394531 L 83 78.394531 Z M 83 70 " clip-rule="nonzero"/></clipPath><clipPath id="ae2dd81f08"><path d="M 76 48 L 109 48 L 109 78.394531 L 76 78.394531 Z M 76 48 " clip-rule="nonzero"/></clipPath><clipPath id="f2571f5c0e"><path d="M 40 36.394531 L 104 36.394531 L 104 49 L 40 49 Z M 40 36.394531 " clip-rule="nonzero"/></clipPath><clipPath id="b0e75f8df2"><path d="M 40 53 L 69 53 L 69 78.394531 L 40 78.394531 Z M 40 53 " clip-rule="nonzero"/></clipPath><clipPath id="5f8aaf5585"><path d="M 46 58 L 66 58 L 66 78.394531 L 46 78.394531 Z M 46 58 " clip-rule="nonzero"/></clipPath><clipPath id="dd55f3e98a"><path d="M 51 65 L 64 65 L 64 78.394531 L 51 78.394531 Z M 51 65 " clip-rule="nonzero"/></clipPath><clipPath id="740efc2cc3"><path d="M 39 59 L 65 59 L 65 78.394531 L 39 78.394531 Z M 39 59 " clip-rule="nonzero"/></clipPath><clipPath id="0268aad07b"><path d="M 45 65 L 63 65 L 63 78.394531 L 45 78.394531 Z M 45 65 " clip-rule="nonzero"/></clipPath><clipPath id="e64499e40b"><path d="M 51 70 L 61 70 L 61 78.394531 L 51 78.394531 Z M 51 70 " clip-rule="nonzero"/></clipPath><clipPath id="b9e1b60de5"><path d="M 34.75 48 L 68 48 L 68 78.394531 L 34.75 78.394531 Z M 34.75 48 " clip-rule="nonzero"/></clipPath><clipPath id="d4992b9b26"><path d="M 34.75 37 L 109 37 L 109 64 L 34.75 64 Z M 34.75 37 " clip-rule="nonzero"/></clipPath></defs><path fill="#ffc75d" d="M 71.984375 140.875 C 121.953125 125.257812 131.324219 72.15625 131.324219 28.425781 C 131.324219 28.425781 96.96875 22.179688 71.984375 3.4375 C 47 22.179688 12.648438 28.425781 12.648438 28.425781 C 12.648438 72.15625 22.015625 125.257812 71.984375 140.875 Z M 71.984375 140.875 " fill-opacity="1" fill-rule="nonzero"/><path fill="#ff8c07" d="M 131.324219 28.425781 C 131.324219 28.425781 96.96875 22.179688 71.984375 3.4375 L 71.984375 140.875 C 121.953125 125.257812 131.324219 72.15625 131.324219 28.425781 Z M 131.324219 28.425781 " fill-opacity="1" fill-rule="nonzero"/><path fill="#ffffff" d="M 71.984375 124.320312 C 44.921875 113.550781 30.640625 86.070312 28.535156 40.644531 C 43.839844 36.457031 58.320312 30.328125 71.984375 22.261719 C 85.648438 30.328125 100.128906 36.457031 115.433594 40.644531 C 113.328125 86.070312 99.050781 113.550781 71.984375 124.320312 Z M 71.984375 124.320312 " fill-opacity="1" fill-rule="nonzero"/><path fill="#dee7f6" d="M 115.433594 40.644531 C 100.128906 36.457031 85.648438 30.328125 71.984375 22.261719 L 71.984375 124.320312 C 99.050781 113.550781 113.328125 86.070312 115.433594 40.644531 Z M 115.433594 40.644531 " fill-opacity="1" fill-rule="nonzero"/><g clip-path="url(#da85bd40a0)"><path fill="#09105a" d="M 71.984375 144 C 71.664062 144 71.351562 143.953125 71.046875 143.859375 C 30.222656 131.097656 9.523438 92.261719 9.523438 28.425781 C 9.523438 28.058594 9.585938 27.703125 9.710938 27.359375 C 9.835938 27.015625 10.015625 26.703125 10.25 26.421875 C 10.484375 26.144531 10.757812 25.910156 11.074219 25.726562 C 11.390625 25.542969 11.726562 25.417969 12.085938 25.351562 C 12.425781 25.300781 46.03125 18.996094 70.109375 0.9375 C 70.382812 0.734375 70.675781 0.578125 70.996094 0.472656 C 71.316406 0.367188 71.648438 0.3125 71.984375 0.3125 C 72.324219 0.3125 72.652344 0.367188 72.972656 0.472656 C 73.292969 0.578125 73.589844 0.734375 73.859375 0.9375 C 97.9375 18.996094 131.542969 25.300781 131.882812 25.351562 C 132.242188 25.417969 132.578125 25.542969 132.894531 25.726562 C 133.210938 25.910156 133.488281 26.144531 133.722656 26.421875 C 133.957031 26.703125 134.136719 27.015625 134.257812 27.359375 C 134.382812 27.703125 134.445312 28.058594 134.445312 28.425781 C 134.445312 92.261719 113.746094 131.097656 72.921875 143.859375 C 72.617188 143.953125 72.304688 144 71.984375 144 Z M 15.769531 30.972656 C 16.300781 89.75 35.203125 125.621094 71.984375 137.597656 C 108.757812 125.609375 127.660156 89.75 128.199219 30.972656 C 119.867188 29.171875 93.300781 22.539062 71.984375 7.304688 C 50.679688 22.527344 24.113281 29.171875 15.769531 30.972656 Z M 15.769531 30.972656 " fill-opacity="1" fill-rule="nonzero"/></g><path fill="#09105a" d="M 71.984375 127.445312 C 71.585938 127.445312 71.199219 127.371094 70.828125 127.222656 C 42.445312 115.929688 27.589844 87.652344 25.417969 40.789062 C 25.402344 40.4375 25.441406 40.089844 25.542969 39.753906 C 25.644531 39.414062 25.796875 39.101562 26.003906 38.816406 C 26.210938 38.53125 26.457031 38.285156 26.746094 38.082031 C 27.035156 37.882812 27.351562 37.730469 27.691406 37.636719 C 42.71875 33.527344 56.941406 27.515625 70.359375 19.597656 C 70.855469 19.292969 71.398438 19.140625 71.984375 19.140625 C 72.570312 19.140625 73.113281 19.292969 73.613281 19.597656 C 87.03125 27.515625 101.253906 33.527344 116.28125 37.636719 C 116.617188 37.730469 116.933594 37.882812 117.222656 38.082031 C 117.511719 38.285156 117.757812 38.53125 117.964844 38.816406 C 118.171875 39.101562 118.324219 39.414062 118.425781 39.753906 C 118.527344 40.089844 118.570312 40.4375 118.554688 40.789062 C 116.367188 87.644531 101.527344 115.929688 73.140625 127.222656 C 72.769531 127.371094 72.382812 127.445312 71.984375 127.445312 Z M 31.78125 42.960938 C 34.195312 84.984375 47.347656 110.53125 71.984375 120.945312 C 96.621094 110.53125 109.773438 84.984375 112.1875 42.960938 C 98.09375 38.90625 84.695312 33.222656 71.984375 25.90625 C 59.277344 33.222656 45.875 38.90625 31.78125 42.960938 Z M 31.78125 42.960938 " fill-opacity="1" fill-rule="nonzero"/><path fill="#09105a" d="M 71.996094 64.957031 L 56.125 49.089844 L 48.292969 49.089844 C 48.1875 48.621094 47.769531 48.269531 47.265625 48.269531 C 46.683594 48.269531 46.214844 48.738281 46.214844 49.320312 C 46.214844 49.902344 46.683594 50.371094 47.265625 50.371094 C 47.757812 50.371094 48.171875 50.03125 48.285156 49.574219 L 55.925781 49.574219 L 71.652344 65.300781 L 71.648438 65.304688 L 71.992188 65.644531 L 71.996094 65.644531 L 72.339844 65.304688 L 72.335938 65.300781 L 88.0625 49.574219 L 95.703125 49.574219 C 95.816406 50.03125 96.230469 50.371094 96.722656 50.371094 C 97.304688 50.371094 97.773438 49.902344 97.773438 49.320312 C 97.773438 48.738281 97.304688 48.269531 96.722656 48.269531 C 96.21875 48.269531 95.800781 48.621094 95.695312 49.089844 L 87.863281 49.089844 L 71.996094 64.957031 " fill-opacity="1" fill-rule="nonzero"/><path fill="#09105a" d="M 106.671875 43.429688 L 103.671875 43.429688 L 100.386719 46.71875 L 100.386719 50.054688 L 98.394531 52.050781 L 87.015625 52.050781 L 71.996094 67.070312 L 56.972656 52.050781 L 45.59375 52.050781 L 43.601562 50.054688 L 43.601562 46.71875 L 40.316406 43.429688 L 37.316406 43.429688 C 37.210938 42.960938 36.789062 42.609375 36.289062 42.609375 C 35.707031 42.609375 35.238281 43.082031 35.238281 43.660156 C 35.238281 44.242188 35.707031 44.714844 36.289062 44.714844 C 36.78125 44.714844 37.195312 44.375 37.308594 43.914062 L 40.113281 43.914062 L 43.117188 46.917969 L 43.117188 50.257812 L 45.394531 52.535156 L 56.773438 52.535156 L 71.652344 67.414062 L 71.648438 67.414062 L 71.992188 67.757812 L 71.996094 67.753906 L 71.996094 67.757812 L 72.339844 67.414062 L 72.335938 67.414062 L 87.21875 52.535156 L 98.59375 52.535156 L 100.871094 50.257812 L 100.871094 46.917969 L 103.875 43.914062 L 106.679688 43.914062 C 106.792969 44.375 107.207031 44.714844 107.699219 44.714844 C 108.28125 44.714844 108.75 44.242188 108.75 43.660156 C 108.75 43.082031 108.28125 42.609375 107.699219 42.609375 C 107.199219 42.609375 106.777344 42.960938 106.671875 43.429688 " fill-opacity="1" fill-rule="nonzero"/><path fill="#09105a" d="M 71.996094 68.894531 L 58.070312 54.96875 L 53.929688 54.96875 C 53.8125 54.523438 53.402344 54.191406 52.917969 54.191406 C 52.335938 54.191406 51.867188 54.664062 51.867188 55.246094 C 51.867188 55.824219 52.335938 56.296875 52.917969 56.296875 C 53.425781 56.296875 53.851562 55.933594 53.949219 55.457031 L 57.871094 55.457031 L 71.652344 69.238281 L 71.648438 69.238281 L 71.992188 69.582031 L 71.996094 69.578125 L 71.996094 69.582031 L 72.339844 69.238281 L 72.335938 69.238281 L 86.117188 55.457031 L 90.039062 55.457031 C 90.140625 55.933594 90.5625 56.296875 91.070312 56.296875 C 91.652344 56.296875 92.125 55.824219 92.125 55.246094 C 92.125 54.664062 91.652344 54.191406 91.070312 54.191406 C 90.585938 54.191406 90.175781 54.523438 90.054688 54.96875 L 85.917969 54.96875 L 71.996094 68.894531 " fill-opacity="1" fill-rule="nonzero"/><path fill="#09105a" d="M 44.96875 53.398438 L 42.015625 50.445312 C 42.105469 50.289062 42.15625 50.109375 42.15625 49.917969 C 42.15625 49.335938 41.6875 48.867188 41.105469 48.867188 C 40.523438 48.867188 40.054688 49.335938 40.054688 49.917969 C 40.054688 50.5 40.523438 50.96875 41.105469 50.96875 C 41.316406 50.96875 41.515625 50.90625 41.683594 50.796875 L 44.769531 53.882812 L 47.285156 53.882812 L 51.542969 58.144531 L 58.609375 58.144531 L 71.652344 71.1875 L 71.648438 71.1875 L 71.992188 71.53125 L 71.996094 71.527344 L 71.996094 71.53125 L 72.339844 71.1875 L 72.335938 71.1875 L 85.378906 58.144531 L 92.445312 58.144531 L 96.703125 53.882812 L 99.21875 53.882812 L 102.304688 50.796875 C 102.472656 50.90625 102.671875 50.96875 102.882812 50.96875 C 103.464844 50.96875 103.933594 50.5 103.933594 49.917969 C 103.933594 49.335938 103.464844 48.867188 102.882812 48.867188 C 102.300781 48.867188 101.832031 49.335938 101.832031 49.917969 C 101.832031 50.109375 101.882812 50.289062 101.972656 50.445312 L 99.019531 53.398438 L 96.503906 53.398438 L 92.242188 57.660156 L 85.175781 57.660156 L 71.996094 70.84375 L 58.8125 57.660156 L 51.746094 57.660156 L 47.484375 53.398438 L 44.96875 53.398438 " fill-opacity="1" fill-rule="nonzero"/><g clip-path="url(#1462a2bc5f)"><path fill="#09105a" d="M 75.785156 78 L 75.785156 76.433594 L 75.652344 76.433594 L 75.652344 69.511719 L 85.710938 59.449219 L 93.203125 59.449219 L 97.542969 55.109375 L 101.535156 55.109375 C 101.671875 55.53125 102.070312 55.839844 102.539062 55.839844 C 103.117188 55.839844 103.589844 55.367188 103.589844 54.789062 C 103.589844 54.207031 103.117188 53.738281 102.539062 53.738281 C 102.011719 53.738281 101.578125 54.121094 101.5 54.625 L 97.34375 54.625 L 93 58.96875 L 85.507812 58.96875 L 75.238281 69.238281 L 75.164062 69.308594 L 75.164062 76.433594 L 75.007812 76.433594 L 75.007812 78 C 75.007812 78.214844 75.179688 78.390625 75.394531 78.390625 C 75.609375 78.390625 75.785156 78.214844 75.785156 78 " fill-opacity="1" fill-rule="nonzero"/></g><g clip-path="url(#e6b47fd1fd)"><path fill="#09105a" d="M 95.75 59.964844 C 95.75 60.171875 95.808594 60.363281 95.910156 60.523438 L 94.6875 61.75 L 86.832031 61.75 L 78.175781 70.40625 L 78.175781 76.433594 L 78.011719 76.433594 L 78.011719 78 C 78.011719 78.214844 78.183594 78.390625 78.398438 78.390625 C 78.613281 78.390625 78.789062 78.214844 78.789062 78 L 78.789062 76.433594 L 78.660156 76.433594 L 78.660156 70.605469 L 87.03125 62.234375 L 94.886719 62.234375 L 96.253906 60.863281 C 96.414062 60.960938 96.601562 61.019531 96.800781 61.019531 C 97.382812 61.019531 97.855469 60.546875 97.855469 59.964844 C 97.855469 59.386719 97.382812 58.914062 96.800781 58.914062 C 96.222656 58.914062 95.75 59.386719 95.75 59.964844 " fill-opacity="1" fill-rule="nonzero"/></g><g clip-path="url(#caa7c2a003)"><path fill="#09105a" d="M 80.578125 78 C 80.578125 78.214844 80.75 78.390625 80.964844 78.390625 C 81.179688 78.390625 81.355469 78.214844 81.355469 78 L 81.355469 76.433594 L 81.222656 76.433594 L 81.222656 72.195312 L 86.730469 66.683594 L 90.335938 66.683594 C 90.453125 67.140625 90.863281 67.476562 91.355469 67.476562 C 91.9375 67.476562 92.40625 67.003906 92.40625 66.421875 C 92.40625 65.84375 91.9375 65.371094 91.355469 65.371094 C 90.851562 65.371094 90.429688 65.726562 90.328125 66.199219 L 86.53125 66.199219 L 80.738281 71.992188 L 80.738281 76.433594 L 80.578125 76.433594 L 80.578125 78 " fill-opacity="1" fill-rule="nonzero"/></g><g clip-path="url(#099d1a822c)"><path fill="#09105a" d="M 102.414062 60.105469 L 101.429688 60.105469 L 98.539062 62.996094 L 87.460938 62.996094 L 79.378906 71.078125 L 79.378906 76.433594 L 79.207031 76.433594 L 79.207031 78 C 79.207031 78.214844 79.378906 78.390625 79.59375 78.390625 C 79.808594 78.390625 79.984375 78.214844 79.984375 78 L 79.984375 76.433594 L 79.863281 76.433594 L 79.863281 71.28125 L 87.660156 63.480469 L 98.738281 63.480469 L 101.628906 60.589844 L 102.425781 60.589844 C 102.542969 61.042969 102.953125 61.375 103.441406 61.375 C 104.023438 61.375 104.492188 60.90625 104.492188 60.324219 C 104.492188 59.742188 104.023438 59.273438 103.441406 59.273438 C 102.9375 59.273438 102.511719 59.628906 102.414062 60.105469 " fill-opacity="1" fill-rule="nonzero"/></g><g clip-path="url(#0abe7b2dbe)"><path fill="#09105a" d="M 96.097656 65.949219 L 95.648438 65.949219 L 92.800781 68.792969 L 86.042969 68.792969 L 82.121094 72.714844 L 82.121094 76.433594 L 81.964844 76.433594 L 81.964844 78 C 81.964844 78.214844 82.136719 78.390625 82.351562 78.390625 C 82.566406 78.390625 82.738281 78.214844 82.738281 78 L 82.738281 76.433594 L 82.609375 76.433594 L 82.609375 72.917969 L 86.246094 69.277344 L 93.003906 69.277344 L 95.851562 66.433594 L 96.101562 66.433594 C 96.214844 66.890625 96.628906 67.230469 97.121094 67.230469 C 97.703125 67.230469 98.175781 66.761719 98.175781 66.179688 C 98.175781 65.597656 97.703125 65.128906 97.121094 65.128906 C 96.621094 65.128906 96.203125 65.480469 96.097656 65.949219 " fill-opacity="1" fill-rule="nonzero"/></g><g clip-path="url(#202f199df7)"><path fill="#09105a" d="M 83.507812 76.433594 L 83.328125 76.433594 L 83.328125 78 C 83.328125 78.214844 83.503906 78.390625 83.71875 78.390625 C 83.929688 78.390625 84.105469 78.214844 84.105469 78 L 84.105469 76.433594 L 83.992188 76.433594 L 83.992188 73.589844 L 86.882812 70.699219 L 91.738281 70.699219 L 91.738281 72.445312 C 91.253906 72.535156 90.882812 72.964844 90.882812 73.476562 C 90.882812 74.058594 91.355469 74.53125 91.933594 74.53125 C 92.515625 74.53125 92.988281 74.058594 92.988281 73.476562 C 92.988281 72.996094 92.664062 72.59375 92.222656 72.464844 L 92.222656 70.214844 L 86.683594 70.214844 L 83.507812 73.390625 L 83.507812 76.433594 " fill-opacity="1" fill-rule="nonzero"/></g><g clip-path="url(#ae2dd81f08)"><path fill="#09105a" d="M 106.898438 49.621094 C 106.898438 49.820312 106.953125 50.003906 107.046875 50.160156 L 105.914062 51.292969 L 105.914062 55.097656 L 104.125 56.890625 L 96.992188 56.890625 L 93.796875 60.085938 L 85.976562 60.085938 L 76.753906 69.308594 L 76.753906 76.433594 L 76.59375 76.433594 L 76.59375 78 C 76.59375 78.214844 76.769531 78.390625 76.984375 78.390625 C 77.195312 78.390625 77.371094 78.214844 77.371094 78 L 77.371094 76.433594 L 77.238281 76.433594 L 77.238281 69.511719 L 86.179688 60.570312 L 93.996094 60.570312 L 97.191406 57.375 L 104.324219 57.375 L 106.398438 55.296875 L 106.398438 51.492188 L 107.382812 50.507812 C 107.546875 50.613281 107.742188 50.675781 107.949219 50.675781 C 108.53125 50.675781 109 50.203125 109 49.621094 C 109 49.042969 108.53125 48.570312 107.949219 48.570312 C 107.367188 48.570312 106.898438 49.042969 106.898438 49.621094 " fill-opacity="1" fill-rule="nonzero"/></g><g clip-path="url(#f2571f5c0e)"><path fill="#09105a" d="M 101.28125 37.574219 L 99.742188 37.574219 L 94.640625 42.671875 L 94.640625 44.792969 L 93.289062 46.140625 L 74.03125 46.140625 L 71.996094 48.179688 L 69.957031 46.140625 L 50.699219 46.140625 L 49.347656 44.792969 L 49.347656 42.671875 L 44.246094 37.574219 L 42.707031 37.574219 C 42.597656 37.109375 42.179688 36.761719 41.683594 36.761719 C 41.101562 36.761719 40.632812 37.234375 40.632812 37.8125 C 40.632812 38.394531 41.101562 38.867188 41.683594 38.867188 C 42.179688 38.867188 42.597656 38.519531 42.707031 38.054688 L 44.046875 38.054688 L 48.863281 42.875 L 48.863281 44.992188 L 50.496094 46.625 L 69.757812 46.625 L 71.652344 48.523438 L 71.648438 48.523438 L 71.992188 48.867188 L 71.996094 48.863281 L 71.996094 48.867188 L 72.339844 48.523438 L 72.335938 48.523438 L 74.230469 46.625 L 93.492188 46.625 L 95.125 44.992188 L 95.125 42.875 L 99.941406 38.054688 L 101.28125 38.054688 C 101.390625 38.519531 101.808594 38.867188 102.304688 38.867188 C 102.886719 38.867188 103.355469 38.394531 103.355469 37.8125 C 103.355469 37.234375 102.886719 36.761719 102.304688 36.761719 C 101.808594 36.761719 101.390625 37.109375 101.28125 37.574219 " fill-opacity="1" fill-rule="nonzero"/></g><g clip-path="url(#b0e75f8df2)"><path fill="#09105a" d="M 68.964844 78 L 68.964844 76.433594 L 68.824219 76.433594 L 68.824219 69.308594 L 68.75 69.238281 L 58.480469 58.96875 L 50.988281 58.96875 L 46.644531 54.625 L 42.488281 54.625 C 42.410156 54.121094 41.976562 53.738281 41.449219 53.738281 C 40.871094 53.738281 40.398438 54.207031 40.398438 54.789062 C 40.398438 55.367188 40.871094 55.839844 41.449219 55.839844 C 41.917969 55.839844 42.316406 55.53125 42.453125 55.109375 L 46.445312 55.109375 L 50.785156 59.449219 L 58.277344 59.449219 L 68.339844 69.511719 L 68.339844 76.433594 L 68.1875 76.433594 L 68.1875 78 C 68.1875 78.214844 68.359375 78.390625 68.574219 78.390625 C 68.789062 78.390625 68.964844 78.214844 68.964844 78 " fill-opacity="1" fill-rule="nonzero"/></g><g clip-path="url(#5f8aaf5585)"><path fill="#09105a" d="M 65.960938 78 L 65.960938 76.433594 L 65.8125 76.433594 L 65.8125 70.40625 L 57.15625 61.75 L 49.300781 61.75 L 48.078125 60.523438 C 48.179688 60.363281 48.238281 60.171875 48.238281 59.964844 C 48.238281 59.386719 47.765625 58.914062 47.1875 58.914062 C 46.605469 58.914062 46.132812 59.386719 46.132812 59.964844 C 46.132812 60.546875 46.605469 61.019531 47.1875 61.019531 C 47.386719 61.019531 47.574219 60.960938 47.734375 60.863281 L 49.101562 62.234375 L 56.957031 62.234375 L 65.328125 70.605469 L 65.328125 76.433594 L 65.183594 76.433594 L 65.183594 78 C 65.183594 78.214844 65.359375 78.390625 65.574219 78.390625 C 65.785156 78.390625 65.960938 78.214844 65.960938 78 " fill-opacity="1" fill-rule="nonzero"/></g><g clip-path="url(#dd55f3e98a)"><path fill="#09105a" d="M 63.394531 78 L 63.394531 76.433594 L 63.25 76.433594 L 63.25 71.992188 L 57.457031 66.199219 L 53.660156 66.199219 C 53.558594 65.726562 53.136719 65.371094 52.632812 65.371094 C 52.050781 65.371094 51.582031 65.84375 51.582031 66.421875 C 51.582031 67.003906 52.050781 67.476562 52.632812 67.476562 C 53.125 67.476562 53.535156 67.140625 53.652344 66.683594 L 57.257812 66.683594 L 62.765625 72.195312 L 62.765625 76.433594 L 62.617188 76.433594 L 62.617188 78 C 62.617188 78.214844 62.792969 78.390625 63.007812 78.390625 C 63.21875 78.390625 63.394531 78.214844 63.394531 78 " fill-opacity="1" fill-rule="nonzero"/></g><path fill="#09105a" d="M 71.820312 43.496094 L 53.941406 43.496094 C 53.832031 43.03125 53.414062 42.683594 52.917969 42.683594 C 52.335938 42.683594 51.867188 43.15625 51.867188 43.738281 C 51.867188 44.316406 52.335938 44.789062 52.917969 44.789062 C 53.414062 44.789062 53.832031 44.441406 53.941406 43.976562 L 90.046875 43.976562 C 90.15625 44.441406 90.574219 44.789062 91.070312 44.789062 C 91.652344 44.789062 92.125 44.316406 92.125 43.738281 C 92.125 43.15625 91.652344 42.683594 91.070312 42.683594 C 90.574219 42.683594 90.15625 43.03125 90.046875 43.496094 L 71.820312 43.496094 " fill-opacity="1" fill-rule="nonzero"/><g clip-path="url(#740efc2cc3)"><path fill="#09105a" d="M 64.765625 78 L 64.765625 76.433594 L 64.609375 76.433594 L 64.609375 71.078125 L 56.527344 62.996094 L 45.449219 62.996094 L 42.558594 60.105469 L 41.574219 60.105469 C 41.476562 59.628906 41.050781 59.273438 40.546875 59.273438 C 39.964844 59.273438 39.496094 59.742188 39.496094 60.324219 C 39.496094 60.90625 39.964844 61.375 40.546875 61.375 C 41.035156 61.375 41.445312 61.042969 41.5625 60.589844 L 42.359375 60.589844 L 45.25 63.480469 L 56.328125 63.480469 L 64.125 71.28125 L 64.125 76.433594 L 63.988281 76.433594 L 63.988281 78 C 63.988281 78.214844 64.160156 78.390625 64.375 78.390625 C 64.589844 78.390625 64.765625 78.214844 64.765625 78 " fill-opacity="1" fill-rule="nonzero"/></g><g clip-path="url(#0268aad07b)"><path fill="#09105a" d="M 62.007812 78 L 62.007812 76.433594 L 61.867188 76.433594 L 61.867188 72.714844 L 57.945312 68.792969 L 51.1875 68.792969 L 48.339844 65.949219 L 47.890625 65.949219 C 47.785156 65.480469 47.367188 65.128906 46.867188 65.128906 C 46.285156 65.128906 45.8125 65.597656 45.8125 66.179688 C 45.8125 66.761719 46.285156 67.230469 46.867188 67.230469 C 47.359375 67.230469 47.773438 66.890625 47.886719 66.433594 L 48.136719 66.433594 L 50.984375 69.277344 L 57.742188 69.277344 L 61.378906 72.917969 L 61.378906 76.433594 L 61.230469 76.433594 L 61.230469 78 C 61.230469 78.214844 61.40625 78.390625 61.621094 78.390625 C 61.835938 78.390625 62.007812 78.214844 62.007812 78 " fill-opacity="1" fill-rule="nonzero"/></g><g clip-path="url(#e64499e40b)"><path fill="#09105a" d="M 60.644531 78 L 60.644531 76.433594 L 60.480469 76.433594 L 60.480469 73.390625 L 57.304688 70.214844 L 51.765625 70.214844 L 51.765625 72.464844 C 51.324219 72.59375 51 72.996094 51 73.476562 C 51 74.058594 51.472656 74.53125 52.054688 74.53125 C 52.632812 74.53125 53.105469 74.058594 53.105469 73.476562 C 53.105469 72.964844 52.734375 72.535156 52.25 72.445312 L 52.25 70.699219 L 57.105469 70.699219 L 59.996094 73.589844 L 59.996094 76.433594 L 59.867188 76.433594 L 59.867188 78 C 59.867188 78.214844 60.039062 78.390625 60.253906 78.390625 C 60.46875 78.390625 60.644531 78.214844 60.644531 78 " fill-opacity="1" fill-rule="nonzero"/></g><g clip-path="url(#b9e1b60de5)"><path fill="#09105a" d="M 67.375 78 L 67.375 76.433594 L 67.234375 76.433594 L 67.234375 69.308594 L 58.011719 60.085938 L 50.191406 60.085938 L 46.996094 56.890625 L 39.863281 56.890625 L 38.074219 55.097656 L 38.074219 51.292969 L 36.941406 50.160156 C 37.035156 50.003906 37.089844 49.820312 37.089844 49.621094 C 37.089844 49.042969 36.621094 48.570312 36.039062 48.570312 C 35.457031 48.570312 34.988281 49.042969 34.988281 49.621094 C 34.988281 50.203125 35.457031 50.675781 36.039062 50.675781 C 36.246094 50.675781 36.441406 50.613281 36.605469 50.507812 L 37.589844 51.492188 L 37.589844 55.296875 L 39.664062 57.375 L 46.796875 57.375 L 49.992188 60.570312 L 57.808594 60.570312 L 66.75 69.511719 L 66.75 76.433594 L 66.601562 76.433594 L 66.601562 78 C 66.601562 78.214844 66.773438 78.390625 66.988281 78.390625 C 67.203125 78.390625 67.375 78.214844 67.375 78 " fill-opacity="1" fill-rule="nonzero"/></g><g clip-path="url(#d4992b9b26)"><path fill="#09105a" d="M 107.113281 38.554688 C 107.113281 38.75 107.167969 38.933594 107.261719 39.089844 L 105.363281 40.988281 L 101.136719 40.988281 L 94.351562 47.777344 L 86.9375 47.777344 L 71.996094 62.71875 L 57.050781 47.777344 L 49.636719 47.777344 L 42.851562 40.988281 L 38.628906 40.988281 L 36.726562 39.089844 C 36.820312 38.933594 36.875 38.75 36.875 38.554688 C 36.875 37.972656 36.40625 37.503906 35.824219 37.503906 C 35.242188 37.503906 34.773438 37.972656 34.773438 38.554688 C 34.773438 39.136719 35.242188 39.605469 35.824219 39.605469 C 36.035156 39.605469 36.226562 39.542969 36.390625 39.4375 L 38.425781 41.472656 L 42.652344 41.472656 L 49.4375 48.261719 L 56.851562 48.261719 L 71.652344 63.0625 L 71.648438 63.0625 L 71.992188 63.40625 L 71.996094 63.40625 L 72.339844 63.0625 L 72.335938 63.0625 L 87.136719 48.261719 L 94.550781 48.261719 L 101.335938 41.472656 L 105.5625 41.472656 L 107.597656 39.4375 C 107.761719 39.542969 107.953125 39.605469 108.164062 39.605469 C 108.746094 39.605469 109.214844 39.136719 109.214844 38.554688 C 109.214844 37.972656 108.746094 37.503906 108.164062 37.503906 C 107.582031 37.503906 107.113281 37.972656 107.113281 38.554688 " fill-opacity="1" fill-rule="nonzero"/></g><path fill="#09105a" d="M 73.925781 51.148438 L 70.410156 51.148438 L 68.652344 54.191406 L 70.410156 57.238281 L 73.925781 57.238281 L 75.683594 54.191406 L 73.925781 51.148438 " fill-opacity="1" fill-rule="nonzero"/><path fill="#09105a" d="M 70.09375 57.78125 L 68.023438 54.191406 L 70.09375 50.601562 L 74.238281 50.601562 L 76.3125 54.191406 L 74.238281 57.78125 Z M 74.566406 58.347656 L 76.964844 54.191406 L 74.566406 50.039062 L 69.769531 50.039062 L 67.371094 54.191406 L 69.769531 58.347656 L 74.566406 58.347656 " fill-opacity="1" fill-rule="nonzero"/><path fill="#ffffff" d="M 6.363281 61.273438 L 137.636719 61.273438 L 137.636719 90.332031 L 6.363281 90.332031 L 6.363281 61.273438 " fill-opacity="1" fill-rule="nonzero"/><g fill="#09105a" fill-opacity="1"><g transform="translate(6.39471, 83.253153)"><g><path d="M 6.3125 -16.296875 C 7.289062 -16.296875 7.820312 -16.078125 7.90625 -15.640625 L 9.34375 -9.125 L 10.8125 -0.46875 C 10.832031 -0.320312 10.84375 -0.1875 10.84375 -0.0625 C 10.84375 0.0507812 10.804688 0.144531 10.734375 0.21875 C 10.671875 0.300781 10.429688 0.34375 10.015625 0.34375 C 8.765625 0.34375 8.097656 0.0703125 8.015625 -0.46875 L 7.265625 -4.828125 L 4.296875 -4.828125 L 3.640625 -0.4375 C 3.597656 -0.144531 3.546875 0.046875 3.484375 0.140625 C 3.421875 0.242188 3.332031 0.300781 3.21875 0.3125 C 3.101562 0.332031 2.921875 0.34375 2.671875 0.34375 L 2.078125 0.34375 C 1.578125 0.34375 1.265625 0.3125 1.140625 0.25 C 0.828125 0.132812 0.648438 0.0078125 0.609375 -0.125 C 0.597656 -0.195312 0.59375 -0.257812 0.59375 -0.3125 C 0.59375 -0.375 0.738281 -1.304688 1.03125 -3.109375 C 1.332031 -4.921875 1.695312 -7.078125 2.125 -9.578125 C 2.5625 -12.078125 2.84375 -13.710938 2.96875 -14.484375 C 3.101562 -15.265625 3.179688 -15.707031 3.203125 -15.8125 C 3.253906 -16.132812 4.289062 -16.296875 6.3125 -16.296875 Z M 5.671875 -13.515625 L 4.703125 -7.390625 L 6.796875 -7.390625 Z M 5.671875 -13.515625 "/></g></g></g><g fill="#09105a" fill-opacity="1"><g transform="translate(17.877751, 83.253153)"><g><path d="M 3.390625 0.34375 C 2.347656 0.34375 1.582031 -0.0820312 1.09375 -0.9375 C 0.601562 -1.789062 0.359375 -3.273438 0.359375 -5.390625 C 0.359375 -7.515625 0.664062 -8.953125 1.28125 -9.703125 C 1.894531 -10.460938 3.054688 -10.84375 4.765625 -10.84375 L 5.78125 -10.84375 L 5.78125 -15.9375 C 5.78125 -16.15625 6.023438 -16.265625 6.515625 -16.265625 C 7.015625 -16.265625 7.425781 -16.234375 7.75 -16.171875 C 8.070312 -16.109375 8.242188 -16.03125 8.265625 -15.9375 L 8.625 -9.171875 L 8.625 0 C 8.625 0.0820312 8.617188 0.140625 8.609375 0.171875 C 8.535156 0.285156 8.269531 0.34375 7.8125 0.34375 C 7.363281 0.34375 6.976562 0.304688 6.65625 0.234375 C 6.34375 0.171875 6.1875 0.09375 6.1875 0 L 5.78125 -0.65625 C 5.375 -0.382812 5.085938 -0.191406 4.921875 -0.078125 C 4.453125 0.203125 3.941406 0.34375 3.390625 0.34375 Z M 4.765625 -8.8125 C 4.242188 -8.8125 3.882812 -8.59375 3.6875 -8.15625 C 3.5 -7.726562 3.40625 -7.003906 3.40625 -5.984375 C 3.40625 -4.960938 3.410156 -4.285156 3.421875 -3.953125 C 3.429688 -3.628906 3.441406 -3.257812 3.453125 -2.84375 C 3.484375 -2.070312 3.582031 -1.6875 3.75 -1.6875 C 4.257812 -1.6875 4.9375 -1.941406 5.78125 -2.453125 L 5.78125 -8.8125 Z M 4.765625 -8.8125 "/></g></g></g><g fill="#09105a" fill-opacity="1"><g transform="translate(27.496388, 83.253153)"><g><path d="M 11.796875 0 L 11.796875 -6.4375 C 11.796875 -8.019531 11.6875 -8.8125 11.46875 -8.8125 C 10.96875 -8.8125 10.253906 -8.535156 9.328125 -7.984375 C 9.390625 -7.460938 9.421875 -6.945312 9.421875 -6.4375 L 9.421875 0 C 9.421875 0.0820312 9.414062 0.140625 9.40625 0.171875 C 9.332031 0.285156 9.054688 0.34375 8.578125 0.34375 C 8.109375 0.34375 7.625 0.304688 7.125 0.234375 C 6.625 0.160156 6.375 0.0820312 6.375 0 L 6.375 -7.21875 C 6.34375 -8.28125 6.226562 -8.8125 6.03125 -8.8125 C 5.53125 -8.8125 4.851562 -8.554688 4 -8.046875 L 4 0 C 4 0.0820312 3.992188 0.140625 3.984375 0.171875 C 3.910156 0.285156 3.632812 0.34375 3.15625 0.34375 C 2.6875 0.34375 2.203125 0.304688 1.703125 0.234375 C 1.203125 0.160156 0.953125 0.0820312 0.953125 0 L 0.953125 -10.515625 C 0.953125 -10.734375 1.234375 -10.84375 1.796875 -10.84375 C 2.691406 -10.84375 3.203125 -10.734375 3.328125 -10.515625 C 3.328125 -10.484375 3.332031 -10.46875 3.34375 -10.46875 L 3.75 -9.65625 C 4.9375 -10.445312 5.820312 -10.84375 6.40625 -10.84375 C 7.644531 -10.84375 8.484375 -10.390625 8.921875 -9.484375 C 10.222656 -10.390625 11.191406 -10.84375 11.828125 -10.84375 C 12.867188 -10.84375 13.632812 -10.519531 14.125 -9.875 C 14.613281 -9.226562 14.859375 -8.082031 14.859375 -6.4375 L 14.859375 0 C 14.859375 0.0820312 14.847656 0.140625 14.828125 0.171875 C 14.753906 0.285156 14.484375 0.34375 14.015625 0.34375 C 13.546875 0.34375 13.054688 0.304688 12.546875 0.234375 C 12.046875 0.160156 11.796875 0.0820312 11.796875 0 Z M 11.796875 0 "/></g></g></g><g fill="#09105a" fill-opacity="1"><g transform="translate(43.343825, 83.253153)"><g><path d="M 1 0 L 1 -10.515625 C 1 -10.734375 1.25 -10.84375 1.75 -10.84375 C 2.257812 -10.84375 2.738281 -10.804688 3.1875 -10.734375 C 3.644531 -10.671875 3.875 -10.597656 3.875 -10.515625 L 3.875 0 C 3.875 0.0820312 3.867188 0.140625 3.859375 0.171875 C 3.785156 0.285156 3.515625 0.34375 3.046875 0.34375 C 2.585938 0.34375 2.128906 0.304688 1.671875 0.234375 C 1.222656 0.160156 1 0.0820312 1 0 Z M 2.296875 -13.21875 C 1.285156 -13.21875 0.78125 -13.722656 0.78125 -14.734375 C 0.78125 -15.753906 1.285156 -16.265625 2.296875 -16.265625 C 3.316406 -16.265625 3.828125 -15.753906 3.828125 -14.734375 C 3.828125 -13.722656 3.316406 -13.21875 2.296875 -13.21875 Z M 2.296875 -13.21875 "/></g></g></g><g fill="#09105a" fill-opacity="1"><g transform="translate(48.216713, 83.253153)"><g><path d="M 6.40625 -10.84375 C 7.445312 -10.84375 8.207031 -10.519531 8.6875 -9.875 C 9.175781 -9.226562 9.421875 -8.082031 9.421875 -6.4375 L 9.421875 0 C 9.421875 0.0820312 9.414062 0.140625 9.40625 0.171875 C 9.332031 0.285156 9.054688 0.34375 8.578125 0.34375 C 8.109375 0.34375 7.628906 0.304688 7.140625 0.234375 C 6.648438 0.160156 6.40625 0.0820312 6.40625 0 L 6.375 -6.4375 C 6.375 -8.019531 6.257812 -8.8125 6.03125 -8.8125 C 5.53125 -8.8125 4.851562 -8.554688 4 -8.046875 L 4 0 C 4 0.0820312 3.992188 0.140625 3.984375 0.171875 C 3.910156 0.285156 3.632812 0.34375 3.15625 0.34375 C 2.6875 0.34375 2.203125 0.304688 1.703125 0.234375 C 1.203125 0.160156 0.953125 0.0820312 0.953125 0 L 0.953125 -10.515625 C 0.953125 -10.734375 1.234375 -10.84375 1.796875 -10.84375 C 2.691406 -10.84375 3.203125 -10.734375 3.328125 -10.515625 C 3.328125 -10.484375 3.332031 -10.46875 3.34375 -10.46875 L 3.75 -9.65625 C 4.9375 -10.445312 5.820312 -10.84375 6.40625 -10.84375 Z M 6.40625 -10.84375 "/></g></g></g><g fill="#09105a" fill-opacity="1"><g transform="translate(58.619245, 83.253153)"><g/></g></g><g fill="#09105a" fill-opacity="1"><g transform="translate(64.318402, 83.253153)"><g><path d="M 6.3125 0.34375 C 4.207031 0.34375 2.753906 -0.25 1.953125 -1.4375 C 1.160156 -2.625 0.765625 -4.765625 0.765625 -7.859375 C 0.765625 -10.109375 0.941406 -11.832031 1.296875 -13.03125 C 1.648438 -14.226562 2.207031 -15.066406 2.96875 -15.546875 C 3.738281 -16.023438 4.832031 -16.265625 6.25 -16.265625 C 7.664062 -16.265625 8.753906 -16.078125 9.515625 -15.703125 C 9.828125 -15.546875 9.984375 -15.332031 9.984375 -15.0625 C 9.984375 -14.976562 9.914062 -14.738281 9.78125 -14.34375 C 9.644531 -13.945312 9.515625 -13.675781 9.390625 -13.53125 C 9.273438 -13.394531 9.144531 -13.328125 9 -13.328125 C 8.863281 -13.328125 8.472656 -13.382812 7.828125 -13.5 C 7.179688 -13.613281 6.632812 -13.671875 6.1875 -13.671875 C 5.738281 -13.671875 5.414062 -13.625 5.21875 -13.53125 C 5.019531 -13.445312 4.851562 -13.289062 4.71875 -13.0625 C 4.59375 -12.832031 4.488281 -12.582031 4.40625 -12.3125 C 4.332031 -12.050781 4.273438 -11.675781 4.234375 -11.1875 C 4.179688 -10.519531 4.15625 -9.207031 4.15625 -7.25 C 4.15625 -5.300781 4.269531 -3.984375 4.5 -3.296875 C 4.738281 -2.617188 5.28125 -2.28125 6.125 -2.28125 L 7.859375 -2.390625 L 7.859375 -7.015625 C 7.867188 -7.296875 7.960938 -7.484375 8.140625 -7.578125 C 8.316406 -7.671875 8.628906 -7.71875 9.078125 -7.71875 C 9.535156 -7.726562 9.878906 -7.671875 10.109375 -7.546875 C 10.335938 -7.429688 10.460938 -7.191406 10.484375 -6.828125 L 10.84375 -2.671875 L 10.84375 0 C 9.050781 0.226562 7.539062 0.34375 6.3125 0.34375 Z M 6.3125 0.34375 "/></g></g></g><g fill="#09105a" fill-opacity="1"><g transform="translate(75.970935, 83.253153)"><g><path d="M 3.921875 0.34375 C 2.878906 0.34375 2.113281 0.0195312 1.625 -0.625 C 1.132812 -1.28125 0.890625 -2.425781 0.890625 -4.0625 L 0.890625 -10.515625 C 0.890625 -10.734375 1.144531 -10.84375 1.65625 -10.84375 C 2.175781 -10.84375 2.679688 -10.804688 3.171875 -10.734375 C 3.671875 -10.671875 3.921875 -10.597656 3.921875 -10.515625 L 3.9375 -4.0625 C 3.9375 -2.476562 4.050781 -1.6875 4.28125 -1.6875 C 4.789062 -1.6875 5.46875 -1.941406 6.3125 -2.453125 L 6.3125 -10.515625 C 6.3125 -10.734375 6.566406 -10.84375 7.078125 -10.84375 C 7.597656 -10.84375 8.109375 -10.804688 8.609375 -10.734375 C 9.109375 -10.671875 9.359375 -10.597656 9.359375 -10.515625 L 9.359375 0 C 9.359375 0.0820312 9.347656 0.140625 9.328125 0.171875 C 9.265625 0.285156 8.894531 0.34375 8.21875 0.34375 C 7.550781 0.34375 7.140625 0.226562 6.984375 0 L 6.546875 -0.65625 C 5.554688 0.0078125 4.679688 0.34375 3.921875 0.34375 Z M 3.921875 0.34375 "/></g></g></g><g fill="#09105a" fill-opacity="1"><g transform="translate(86.352282, 83.253153)"><g><path d="M 5.8125 -0.65625 C 5.070312 0.0078125 4.414062 0.34375 3.84375 0.34375 C 3.269531 0.34375 2.804688 0.300781 2.453125 0.21875 C 2.097656 0.144531 1.78125 -0.0195312 1.5 -0.28125 C 1.21875 -0.539062 1.019531 -0.914062 0.90625 -1.40625 C 0.789062 -1.90625 0.734375 -2.566406 0.734375 -3.390625 C 0.734375 -4.535156 1.296875 -5.316406 2.421875 -5.734375 L 5.4375 -6.53125 C 5.425781 -7.445312 5.335938 -8.035156 5.171875 -8.296875 C 5.003906 -8.566406 4.632812 -8.703125 4.0625 -8.703125 C 3.5 -8.703125 3.015625 -8.613281 2.609375 -8.4375 L 1.859375 -8.140625 L 1.84375 -8.140625 C 1.71875 -8.066406 1.601562 -8.125 1.5 -8.3125 C 1.25 -8.84375 1.125 -9.257812 1.125 -9.5625 C 1.125 -9.863281 1.144531 -10.03125 1.1875 -10.0625 C 1.238281 -10.101562 1.265625 -10.132812 1.265625 -10.15625 C 1.972656 -10.613281 2.890625 -10.84375 4.015625 -10.84375 C 5.140625 -10.84375 6.003906 -10.691406 6.609375 -10.390625 C 7.210938 -10.097656 7.648438 -9.5625 7.921875 -8.78125 C 8.203125 -8 8.34375 -6.835938 8.34375 -5.296875 L 8.3125 0 C 8.3125 0.0820312 8.296875 0.140625 8.265625 0.171875 C 8.203125 0.285156 7.929688 0.34375 7.453125 0.34375 C 6.578125 0.34375 6.140625 0.226562 6.140625 0 Z M 3.09375 -3.34375 C 3.09375 -2.332031 3.390625 -1.796875 3.984375 -1.734375 C 4.390625 -1.734375 4.6875 -1.804688 4.875 -1.953125 C 5.269531 -2.222656 5.46875 -3.222656 5.46875 -4.953125 C 4.726562 -4.859375 4.144531 -4.660156 3.71875 -4.359375 C 3.300781 -4.054688 3.09375 -3.71875 3.09375 -3.34375 Z M 3.09375 -3.34375 "/></g></g></g><g fill="#09105a" fill-opacity="1"><g transform="translate(95.631935, 83.253153)"><g><path d="M 3.4375 -9.65625 C 4.59375 -10.445312 5.359375 -10.84375 5.734375 -10.84375 C 6.109375 -10.84375 6.445312 -10.769531 6.75 -10.625 C 7.050781 -10.488281 7.273438 -10.351562 7.421875 -10.21875 L 7.609375 -10.015625 C 7.390625 -9.117188 7.222656 -8.554688 7.109375 -8.328125 C 7.003906 -8.097656 6.851562 -7.984375 6.65625 -7.984375 C 6.46875 -7.984375 6.222656 -8.0625 5.921875 -8.21875 C 5.628906 -8.375 5.363281 -8.453125 5.125 -8.453125 C 4.882812 -8.453125 4.40625 -8.234375 3.6875 -7.796875 L 3.6875 0 C 3.6875 0.0820312 3.671875 0.140625 3.640625 0.171875 C 3.585938 0.285156 3.328125 0.34375 2.859375 0.34375 C 2.390625 0.34375 1.953125 0.304688 1.546875 0.234375 C 1.148438 0.160156 0.953125 0.0820312 0.953125 0 L 0.953125 -10.515625 C 0.953125 -10.734375 1.269531 -10.84375 1.90625 -10.84375 C 2.539062 -10.84375 2.910156 -10.734375 3.015625 -10.515625 L 3.015625 -10.46875 Z M 3.4375 -9.65625 "/></g></g></g><g fill="#09105a" fill-opacity="1"><g transform="translate(103.4921, 83.253153)"><g><path d="M 3.390625 0.34375 C 2.347656 0.34375 1.582031 -0.0820312 1.09375 -0.9375 C 0.601562 -1.789062 0.359375 -3.273438 0.359375 -5.390625 C 0.359375 -7.515625 0.664062 -8.953125 1.28125 -9.703125 C 1.894531 -10.460938 3.054688 -10.84375 4.765625 -10.84375 L 5.78125 -10.84375 L 5.78125 -15.9375 C 5.78125 -16.15625 6.023438 -16.265625 6.515625 -16.265625 C 7.015625 -16.265625 7.425781 -16.234375 7.75 -16.171875 C 8.070312 -16.109375 8.242188 -16.03125 8.265625 -15.9375 L 8.625 -9.171875 L 8.625 0 C 8.625 0.0820312 8.617188 0.140625 8.609375 0.171875 C 8.535156 0.285156 8.269531 0.34375 7.8125 0.34375 C 7.363281 0.34375 6.976562 0.304688 6.65625 0.234375 C 6.34375 0.171875 6.1875 0.09375 6.1875 0 L 5.78125 -0.65625 C 5.375 -0.382812 5.085938 -0.191406 4.921875 -0.078125 C 4.453125 0.203125 3.941406 0.34375 3.390625 0.34375 Z M 4.765625 -8.8125 C 4.242188 -8.8125 3.882812 -8.59375 3.6875 -8.15625 C 3.5 -7.726562 3.40625 -7.003906 3.40625 -5.984375 C 3.40625 -4.960938 3.410156 -4.285156 3.421875 -3.953125 C 3.429688 -3.628906 3.441406 -3.257812 3.453125 -2.84375 C 3.484375 -2.070312 3.582031 -1.6875 3.75 -1.6875 C 4.257812 -1.6875 4.9375 -1.941406 5.78125 -2.453125 L 5.78125 -8.8125 Z M 4.765625 -8.8125 "/></g></g></g><g fill="#09105a" fill-opacity="1"><g transform="translate(113.110737, 83.253153)"><g><path d="M 1 0 L 1 -10.515625 C 1 -10.734375 1.25 -10.84375 1.75 -10.84375 C 2.257812 -10.84375 2.738281 -10.804688 3.1875 -10.734375 C 3.644531 -10.671875 3.875 -10.597656 3.875 -10.515625 L 3.875 0 C 3.875 0.0820312 3.867188 0.140625 3.859375 0.171875 C 3.785156 0.285156 3.515625 0.34375 3.046875 0.34375 C 2.585938 0.34375 2.128906 0.304688 1.671875 0.234375 C 1.222656 0.160156 1 0.0820312 1 0 Z M 2.296875 -13.21875 C 1.285156 -13.21875 0.78125 -13.722656 0.78125 -14.734375 C 0.78125 -15.753906 1.285156 -16.265625 2.296875 -16.265625 C 3.316406 -16.265625 3.828125 -15.753906 3.828125 -14.734375 C 3.828125 -13.722656 3.316406 -13.21875 2.296875 -13.21875 Z M 2.296875 -13.21875 "/></g></g></g><g fill="#09105a" fill-opacity="1"><g transform="translate(117.983626, 83.253153)"><g><path d="M 5.8125 -0.65625 C 5.070312 0.0078125 4.414062 0.34375 3.84375 0.34375 C 3.269531 0.34375 2.804688 0.300781 2.453125 0.21875 C 2.097656 0.144531 1.78125 -0.0195312 1.5 -0.28125 C 1.21875 -0.539062 1.019531 -0.914062 0.90625 -1.40625 C 0.789062 -1.90625 0.734375 -2.566406 0.734375 -3.390625 C 0.734375 -4.535156 1.296875 -5.316406 2.421875 -5.734375 L 5.4375 -6.53125 C 5.425781 -7.445312 5.335938 -8.035156 5.171875 -8.296875 C 5.003906 -8.566406 4.632812 -8.703125 4.0625 -8.703125 C 3.5 -8.703125 3.015625 -8.613281 2.609375 -8.4375 L 1.859375 -8.140625 L 1.84375 -8.140625 C 1.71875 -8.066406 1.601562 -8.125 1.5 -8.3125 C 1.25 -8.84375 1.125 -9.257812 1.125 -9.5625 C 1.125 -9.863281 1.144531 -10.03125 1.1875 -10.0625 C 1.238281 -10.101562 1.265625 -10.132812 1.265625 -10.15625 C 1.972656 -10.613281 2.890625 -10.84375 4.015625 -10.84375 C 5.140625 -10.84375 6.003906 -10.691406 6.609375 -10.390625 C 7.210938 -10.097656 7.648438 -9.5625 7.921875 -8.78125 C 8.203125 -8 8.34375 -6.835938 8.34375 -5.296875 L 8.3125 0 C 8.3125 0.0820312 8.296875 0.140625 8.265625 0.171875 C 8.203125 0.285156 7.929688 0.34375 7.453125 0.34375 C 6.578125 0.34375 6.140625 0.226562 6.140625 0 Z M 3.09375 -3.34375 C 3.09375 -2.332031 3.390625 -1.796875 3.984375 -1.734375 C 4.390625 -1.734375 4.6875 -1.804688 4.875 -1.953125 C 5.269531 -2.222656 5.46875 -3.222656 5.46875 -4.953125 C 4.726562 -4.859375 4.144531 -4.660156 3.71875 -4.359375 C 3.300781 -4.054688 3.09375 -3.71875 3.09375 -3.34375 Z M 3.09375 -3.34375 "/></g></g></g><g fill="#09105a" fill-opacity="1"><g transform="translate(127.263278, 83.253153)"><g><path d="M 6.40625 -10.84375 C 7.445312 -10.84375 8.207031 -10.519531 8.6875 -9.875 C 9.175781 -9.226562 9.421875 -8.082031 9.421875 -6.4375 L 9.421875 0 C 9.421875 0.0820312 9.414062 0.140625 9.40625 0.171875 C 9.332031 0.285156 9.054688 0.34375 8.578125 0.34375 C 8.109375 0.34375 7.628906 0.304688 7.140625 0.234375 C 6.648438 0.160156 6.40625 0.0820312 6.40625 0 L 6.375 -6.4375 C 6.375 -8.019531 6.257812 -8.8125 6.03125 -8.8125 C 5.53125 -8.8125 4.851562 -8.554688 4 -8.046875 L 4 0 C 4 0.0820312 3.992188 0.140625 3.984375 0.171875 C 3.910156 0.285156 3.632812 0.34375 3.15625 0.34375 C 2.6875 0.34375 2.203125 0.304688 1.703125 0.234375 C 1.203125 0.160156 0.953125 0.0820312 0.953125 0 L 0.953125 -10.515625 C 0.953125 -10.734375 1.234375 -10.84375 1.796875 -10.84375 C 2.691406 -10.84375 3.203125 -10.734375 3.328125 -10.515625 C 3.328125 -10.484375 3.332031 -10.46875 3.34375 -10.46875 L 3.75 -9.65625 C 4.9375 -10.445312 5.820312 -10.84375 6.40625 -10.84375 Z M 6.40625 -10.84375 "/></g></g></g><g fill="#09105a" fill-opacity="1"><g transform="translate(50.896419, 106.871624)"><g><path d="M 6.875 -13.75 C 8.03125 -13.75 9 -13.554688 9.78125 -13.171875 C 10.570312 -12.785156 11.15625 -12.242188 11.53125 -11.546875 C 11.914062 -10.859375 12.109375 -10.0625 12.109375 -9.15625 C 12.109375 -8.3125 11.925781 -7.53125 11.5625 -6.8125 C 11.195312 -6.09375 10.664062 -5.515625 9.96875 -5.078125 C 9.28125 -4.640625 8.460938 -4.421875 7.515625 -4.421875 L 4.578125 -4.421875 L 4.578125 0 L 1.3125 0 L 1.3125 -13.75 Z M 6.84375 -7.359375 C 7.40625 -7.359375 7.878906 -7.507812 8.265625 -7.8125 C 8.648438 -8.125 8.84375 -8.546875 8.84375 -9.078125 C 8.84375 -9.660156 8.65625 -10.09375 8.28125 -10.375 C 7.914062 -10.65625 7.4375 -10.796875 6.84375 -10.796875 L 4.578125 -10.796875 L 4.578125 -7.359375 Z M 6.84375 -7.359375 "/></g></g></g><g fill="#09105a" fill-opacity="1"><g transform="translate(63.654033, 106.871624)"><g><path d="M 4.578125 -4.421875 L 4.578125 0 L 1.3125 0 L 1.3125 -13.75 L 6.875 -13.75 C 8.03125 -13.75 9 -13.554688 9.78125 -13.171875 C 10.570312 -12.785156 11.15625 -12.242188 11.53125 -11.546875 C 11.914062 -10.859375 12.109375 -10.0625 12.109375 -9.15625 C 12.109375 -8.164062 11.859375 -7.265625 11.359375 -6.453125 C 10.867188 -5.648438 10.179688 -5.070312 9.296875 -4.71875 L 12.765625 0 L 9 0 L 5.9375 -4.421875 Z M 6.84375 -7.359375 C 7.40625 -7.359375 7.878906 -7.507812 8.265625 -7.8125 C 8.648438 -8.125 8.84375 -8.546875 8.84375 -9.078125 C 8.84375 -9.660156 8.65625 -10.09375 8.28125 -10.375 C 7.914062 -10.65625 7.4375 -10.796875 6.84375 -10.796875 L 4.578125 -10.796875 L 4.578125 -7.359375 Z M 6.84375 -7.359375 "/></g></g></g><g fill="#09105a" fill-opacity="1"><g transform="translate(77.071291, 106.871624)"><g><path d="M 8.015625 -14.0625 C 9.359375 -14.0625 10.59375 -13.738281 11.71875 -13.09375 C 12.84375 -12.445312 13.734375 -11.570312 14.390625 -10.46875 C 15.054688 -9.375 15.390625 -8.175781 15.390625 -6.875 C 15.390625 -5.570312 15.054688 -4.367188 14.390625 -3.265625 C 13.734375 -2.160156 12.835938 -1.285156 11.703125 -0.640625 C 10.578125 0.00390625 9.347656 0.328125 8.015625 0.328125 C 6.679688 0.328125 5.453125 0.00390625 4.328125 -0.640625 C 3.203125 -1.285156 2.304688 -2.160156 1.640625 -3.265625 C 0.984375 -4.367188 0.65625 -5.570312 0.65625 -6.875 C 0.65625 -8.175781 0.984375 -9.375 1.640625 -10.46875 C 2.304688 -11.570312 3.203125 -12.445312 4.328125 -13.09375 C 5.453125 -13.738281 6.679688 -14.0625 8.015625 -14.0625 Z M 8.015625 -2.609375 C 8.753906 -2.609375 9.4375 -2.800781 10.0625 -3.1875 C 10.6875 -3.570312 11.179688 -4.09375 11.546875 -4.75 C 11.921875 -5.40625 12.109375 -6.113281 12.109375 -6.875 C 12.109375 -7.632812 11.921875 -8.335938 11.546875 -8.984375 C 11.179688 -9.640625 10.6875 -10.160156 10.0625 -10.546875 C 9.4375 -10.929688 8.753906 -11.125 8.015625 -11.125 C 7.285156 -11.125 6.601562 -10.929688 5.96875 -10.546875 C 5.34375 -10.160156 4.847656 -9.644531 4.484375 -9 C 4.117188 -8.351562 3.9375 -7.644531 3.9375 -6.875 C 3.9375 -6.101562 4.117188 -5.390625 4.484375 -4.734375 C 4.847656 -4.085938 5.34375 -3.570312 5.96875 -3.1875 C 6.601562 -2.800781 7.285156 -2.609375 8.015625 -2.609375 Z M 8.015625 -2.609375 "/></g></g></g></svg>